<?xml version="1.0" encoding="utf-8"?>
<svg xmlns="http://www.w3.org/2000/svg"
	xmlns:xlink="http://www.w3.org/1999/xlink"
	width="102px" height="110px" viewBox="0 0 102 110">
<path fillRule="evenodd" d="M 88 109.02C 82.39 107.52 79.06 101.74 80.56 96.14 80.96 94.65 81.66 93.32 82.59 92.2 82.59 92.2 69.82 74.21 69.82 74.21 65.79 76.26 61.02 76.89 56.31 75.63 51.26 74.27 47.23 71 44.8 66.8 44.8 66.8 21.03 76.23 21.03 76.23 21.18 77.5 21.09 78.81 20.74 80.12 19.24 85.71 13.47 89.05 7.86 87.54 2.26 86.04-1.08 80.27 0.42 74.67 1.92 69.08 7.7 65.74 13.3 67.24 15.66 67.88 17.62 69.27 18.98 71.09 18.98 71.09 42.75 61.66 42.75 61.66 42.05 58.7 42.05 55.54 42.89 52.4 45.35 43.21 54.21 37.4 63.4 38.48 63.4 38.48 68.21 20.52 68.21 20.52 64.22 18.19 62.1 13.4 63.35 8.72 64.85 3.13 70.63-0.2 76.23 1.3 81.83 2.8 85.17 8.57 83.67 14.17 82.42 18.84 78.18 21.93 73.56 21.95 73.56 21.95 68.75 39.91 68.75 39.91 77.25 43.58 82.02 53.03 79.55 62.22 78.62 65.7 76.77 68.7 74.34 71.02 74.34 71.02 87.1 89 87.1 89 89.07 88.28 91.26 88.13 93.44 88.72 99.04 90.22 102.37 95.99 100.87 101.59 99.37 107.18 93.6 110.52 88 109.02ZM 11.87 72.59C 9.22 71.87 6.48 73.45 5.77 76.1 5.06 78.76 6.64 81.49 9.29 82.2 11.95 82.92 14.69 81.34 15.4 78.68 16.11 76.03 14.53 73.3 11.87 72.59ZM 78.32 12.74C 79.03 10.09 77.45 7.35 74.8 6.64 72.14 5.93 69.4 7.51 68.69 10.16 67.98 12.81 69.57 15.55 72.22 16.26 74.87 16.97 77.61 15.39 78.32 12.74ZM 64.7 44.34C 57.53 42.42 50.15 46.68 48.23 53.83 46.31 60.99 50.58 68.37 57.74 70.29 64.9 72.21 72.29 67.95 74.21 60.79 76.13 53.64 71.86 46.25 64.7 44.34ZM 92 94.06C 89.35 93.35 86.61 94.92 85.9 97.58 85.19 100.23 86.77 102.96 89.43 103.68 92.08 104.39 94.82 102.81 95.53 100.16 96.24 97.5 94.66 94.77 92 94.06Z" fill="rgb(255,255,255)"/></svg>