<?xml version="1.0" encoding="utf-8"?>
<svg xmlns="http://www.w3.org/2000/svg"
	xmlns:xlink="http://www.w3.org/1999/xlink"
	width="86px" height="57px" viewBox="0 0 86 57">
<path fillRule="evenodd" d="M 78.66 57C 78.66 57 7.34 57 7.34 57 3.29 57-0 53.67-0 49.57-0 49.57-0 7.43-0 7.43-0 3.33 3.29-0 7.34-0 7.34-0 78.66-0 78.66-0 82.71-0 86 3.33 86 7.43 86 7.43 86 49.57 86 49.57 86 53.67 82.71 57 78.66 57ZM 83.21 7.43C 83.21 4.89 81.17 2.82 78.66 2.82 78.66 2.82 7.34 2.82 7.34 2.82 4.83 2.82 2.79 4.89 2.79 7.43 2.79 7.43 2.79 49.57 2.79 49.57 2.79 52.11 4.83 54.18 7.34 54.18 7.34 54.18 78.66 54.18 78.66 54.18 81.17 54.18 83.21 52.11 83.21 49.57 83.21 49.57 83.21 7.43 83.21 7.43ZM 75.69 47.97C 75.69 47.97 48.94 47.97 48.94 47.97 47.36 47.97 46.06 46.66 46.06 45.05 46.06 45.05 46.06 26.99 46.06 26.99 46.06 25.39 47.36 24.08 48.94 24.08 48.94 24.08 75.69 24.08 75.69 24.08 77.28 24.08 78.57 25.39 78.57 26.99 78.57 26.99 78.57 45.05 78.57 45.05 78.57 46.66 77.28 47.97 75.69 47.97ZM 75.78 26.99C 75.78 26.94 75.74 26.9 75.69 26.9 75.69 26.9 48.94 26.9 48.94 26.9 48.89 26.9 48.85 26.94 48.85 26.99 48.85 26.99 48.85 45.05 48.85 45.05 48.85 45.11 48.89 45.15 48.94 45.15 48.94 45.15 75.69 45.15 75.69 45.15 75.74 45.15 75.78 45.11 75.78 45.05 75.78 45.05 75.78 26.99 75.78 26.99ZM 71.23 40.44C 71.23 40.44 53.4 40.44 53.4 40.44 52.63 40.44 52.01 39.81 52.01 39.03 52.01 38.25 52.63 37.62 53.4 37.62 53.4 37.62 71.23 37.62 71.23 37.62 72 37.62 72.63 38.25 72.63 39.03 72.63 39.81 72 40.44 71.23 40.44ZM 71.23 34.42C 71.23 34.42 53.4 34.42 53.4 34.42 52.63 34.42 52.01 33.79 52.01 33.01 52.01 32.23 52.63 31.6 53.4 31.6 53.4 31.6 71.23 31.6 71.23 31.6 72 31.6 72.63 32.23 72.63 33.01 72.63 33.79 72 34.42 71.23 34.42ZM 77.18 19.38C 77.18 19.38 47.46 19.38 47.46 19.38 46.69 19.38 46.06 18.74 46.06 17.96 46.06 17.19 46.69 16.55 47.46 16.55 47.46 16.55 77.18 16.55 77.18 16.55 77.95 16.55 78.57 17.19 78.57 17.96 78.57 18.74 77.95 19.38 77.18 19.38ZM 65.29 13.36C 65.29 13.36 47.46 13.36 47.46 13.36 46.69 13.36 46.06 12.72 46.06 11.94 46.06 11.17 46.69 10.53 47.46 10.53 47.46 10.53 65.29 10.53 65.29 10.53 66.06 10.53 66.68 11.17 66.68 11.94 66.68 12.72 66.06 13.36 65.29 13.36ZM 37.47 47.97C 37.47 47.97 11.8 47.97 11.8 47.97 10.51 47.97 9.3 47.4 8.47 46.41 7.63 45.41 7.28 44.11 7.49 42.82 7.49 42.82 8.08 39.23 8.08 39.23 8.36 37.51 9.63 36.11 11.3 35.67 11.3 35.67 18.78 33.73 18.78 33.73 18.78 33.73 18.78 31.07 18.78 31.07 16.01 29.13 14.32 25.91 14.32 22.48 14.32 22.48 14.32 17.96 14.32 17.96 14.32 13.04 18.28 9.03 23.15 9.03 23.15 9.03 26.12 9.03 26.12 9.03 30.98 9.03 34.94 13.04 34.94 17.96 34.94 17.96 34.94 22.48 34.94 22.48 34.94 25.91 33.25 29.13 30.48 31.07 30.48 31.07 30.48 33.73 30.48 33.73 30.48 33.73 37.97 35.67 37.97 35.67 39.64 36.11 40.9 37.51 41.18 39.23 41.18 39.23 41.78 42.82 41.78 42.82 41.99 44.11 41.63 45.41 40.8 46.41 39.97 47.4 38.76 47.97 37.47 47.97ZM 38.44 39.69C 38.33 39.07 37.88 38.56 37.27 38.41 37.27 38.41 28.74 36.19 28.74 36.19 28.13 36.03 27.7 35.46 27.7 34.82 27.7 34.82 27.7 30.29 27.7 30.29 27.7 29.79 27.96 29.32 28.39 29.07 30.71 27.71 32.16 25.18 32.16 22.48 32.16 22.48 32.16 17.96 32.16 17.96 32.16 14.59 29.45 11.85 26.12 11.85 26.12 11.85 23.15 11.85 23.15 11.85 19.82 11.85 17.11 14.59 17.11 17.96 17.11 17.96 17.11 22.48 17.11 22.48 17.11 25.18 18.55 27.71 20.87 29.07 21.3 29.32 21.57 29.79 21.57 30.29 21.57 30.29 21.57 34.82 21.57 34.82 21.57 35.46 21.14 36.03 20.52 36.19 20.52 36.19 11.99 38.41 11.99 38.41 11.39 38.56 10.93 39.07 10.83 39.69 10.83 39.69 10.24 43.29 10.24 43.29 10.16 43.76 10.29 44.22 10.59 44.58 10.9 44.95 11.32 45.15 11.8 45.15 11.8 45.15 37.47 45.15 37.47 45.15 37.94 45.15 38.37 44.95 38.67 44.58 38.98 44.22 39.11 43.76 39.03 43.29 39.03 43.29 38.44 39.69 38.44 39.69Z" fill="rgb(53,53,53)"/></svg>