<?xml version="1.0" encoding="utf-8"?>
<svg xmlns="http://www.w3.org/2000/svg"
	xmlns:xlink="http://www.w3.org/1999/xlink"
	width="70px" height="56px" viewBox="0 0 70 56">
<path fillRule="evenodd" d="M 66.58 45.38C 66.58 45.38 42.72 45.38 42.72 45.38 42.72 45.38 43.71 52.92 43.71 52.92 43.71 52.92 47.96 52.92 47.96 52.92 48.82 52.92 49.51 53.61 49.51 54.46 49.51 55.31 48.82 56 47.96 56 47.96 56 22.04 56 22.04 56 21.18 56 20.49 55.31 20.49 54.46 20.49 53.61 21.18 52.92 22.04 52.92 22.04 52.92 26.29 52.92 26.29 52.92 26.29 52.92 27.28 45.38 27.28 45.38 27.28 45.38 3.42 45.38 3.42 45.38 1.53 45.38-0 43.85-0 41.97-0 41.97-0 3.4-0 3.4-0 1.53 1.53-0 3.42-0 3.42-0 66.58-0 66.58-0 68.47-0 70 1.53 70 3.4 70 3.4 70 41.97 70 41.97 70 43.85 68.47 45.38 66.58 45.38ZM 40.59 52.92C 40.59 52.92 39.6 45.38 39.6 45.38 39.6 45.38 30.4 45.38 30.4 45.38 30.4 45.38 29.41 52.92 29.41 52.92 29.41 52.92 40.59 52.92 40.59 52.92ZM 66.91 3.4C 66.91 3.23 66.76 3.08 66.58 3.08 66.58 3.08 3.42 3.08 3.42 3.08 3.24 3.08 3.09 3.23 3.09 3.4 3.09 3.4 3.09 35.98 3.09 35.98 3.09 35.98 66.91 35.98 66.91 35.98 66.91 35.98 66.91 3.4 66.91 3.4ZM 66.91 39.07C 66.91 39.07 3.09 39.07 3.09 39.07 3.09 39.07 3.09 41.97 3.09 41.97 3.09 42.15 3.24 42.3 3.42 42.3 3.42 42.3 66.58 42.3 66.58 42.3 66.76 42.3 66.91 42.15 66.91 41.97 66.91 41.97 66.91 39.07 66.91 39.07ZM 24.34 7.92C 24.34 7.92 45.66 7.92 45.66 7.92 48.27 7.92 50.39 10.04 50.39 12.64 50.39 12.64 50.39 27.1 50.39 27.1 50.39 29.7 48.27 31.81 45.66 31.81 45.66 31.81 24.34 31.81 24.34 31.81 21.73 31.81 19.61 29.7 19.61 27.1 19.61 27.1 19.61 12.64 19.61 12.64 19.61 10.04 21.73 7.92 24.34 7.92ZM 22.7 27.1C 22.7 28 23.44 28.73 24.34 28.73 24.34 28.73 45.66 28.73 45.66 28.73 46.56 28.73 47.3 28 47.3 27.1 47.3 27.1 47.3 12.63 47.3 12.63 47.3 11.74 46.56 11 45.66 11 45.66 11 24.34 11 24.34 11 23.44 11 22.7 11.74 22.7 12.63 22.7 12.63 22.7 27.1 22.7 27.1ZM 32.21 14.48C 32.69 14.2 33.28 14.2 33.76 14.48 33.76 14.48 40.8 18.53 40.8 18.53 41.28 18.81 41.57 19.32 41.57 19.87 41.57 20.42 41.28 20.93 40.8 21.2 40.8 21.2 33.76 25.26 33.76 25.26 33.52 25.39 33.25 25.46 32.98 25.46 32.72 25.46 32.45 25.39 32.21 25.26 31.73 24.98 31.44 24.47 31.44 23.92 31.44 23.92 31.44 15.81 31.44 15.81 31.44 15.26 31.73 14.75 32.21 14.48ZM 34.53 21.25C 34.53 21.25 36.93 19.87 36.93 19.87 36.93 19.87 34.53 18.48 34.53 18.48 34.53 18.48 34.53 21.25 34.53 21.25Z" fill="rgb(53,53,53)"/></svg>