<?xml version="1.0" standalone="no"?>
<!DOCTYPE svg PUBLIC "-//W3C//DTD SVG 1.1//EN" "http://www.w3.org/Graphics/SVG/1.1/DTD/svg11.dtd" >
<svg xmlns="http://www.w3.org/2000/svg" xmlns:xlink="http://www.w3.org/1999/xlink" version="1.1">
<metadata>
Created by FontForge 20161013 at Thu Nov 24 22:58:13 2011
 By ,,,
Typeface (c) (your company). 2010. All Rights Reserved
</metadata>
<defs>
<font id="HarryPotterRussianVersionofGfdtk" horiz-adv-x="594" >
  <font-face 
    font-family="Harry Potter (Russian Version of Gfdtk)"
    font-weight="400"
    font-stretch="normal"
    units-per-em="2048"
    panose-1="2 0 0 0 0 0 0 0 0 0"
    ascent="1638"
    descent="-410"
    x-height="955"
    cap-height="1683"
    bbox="-496 -532 1908 1894"
    underline-thickness="150"
    underline-position="-442"
    unicode-range="U+0020-044F"
  />
<missing-glyph horiz-adv-x="1897" 
d="M1416 1876l8 -8v-108l204 80l240 -316l-52 -484l-228 -120l-164 168l4 -280v-164h-4q-80 108 -80 124h-4v-8l8 -488l4 -48h-8l-56 96h-8v-4l-40 -476h-8l-148 848h4l68 -44h4q-56 364 -64 380q-46 44 -72 44h-4q-58 0 -92 -32l12 -748q0 -70 80 -100v-8h-40l-380 4v8
q84 43 84 96v596h-4q-99 -56 -204 -88v-408q0 -66 84 -104v-8h-52l-408 4v8q44 0 96 72q8 18 8 52v408q-60 9 -136 64q-64 62 -64 144v16q56 44 116 44h32v-8q-88 -21 -88 -56v-8q0 -81 140 -124v8l-4 652q0 65 -76 104v8h384v-4q-44 -44 -44 -84l12 -688h4q54 16 204 100
v632q0 67 -80 96v8l368 4h24v-4q-76 -75 -76 -112q3 -476 8 -476q89 44 132 44q68 0 120 -28v4l-84 716l4 4h316zM1424 1664v-532q127 -76 152 -76l40 48l-24 612l-4 12z" />
    <glyph glyph-name=".notdef" horiz-adv-x="1897" 
d="M1416 1876l8 -8v-108l204 80l240 -316l-52 -484l-228 -120l-164 168l4 -280v-164h-4q-80 108 -80 124h-4v-8l8 -488l4 -48h-8l-56 96h-8v-4l-40 -476h-8l-148 848h4l68 -44h4q-56 364 -64 380q-46 44 -72 44h-4q-58 0 -92 -32l12 -748q0 -70 80 -100v-8h-40l-380 4v8
q84 43 84 96v596h-4q-99 -56 -204 -88v-408q0 -66 84 -104v-8h-52l-408 4v8q44 0 96 72q8 18 8 52v408q-60 9 -136 64q-64 62 -64 144v16q56 44 116 44h32v-8q-88 -21 -88 -56v-8q0 -81 140 -124v8l-4 652q0 65 -76 104v8h384v-4q-44 -44 -44 -84l12 -688h4q54 16 204 100
v632q0 67 -80 96v8l368 4h24v-4q-76 -75 -76 -112q3 -476 8 -476q89 44 132 44q68 0 120 -28v4l-84 716l4 4h316zM1424 1664v-532q127 -76 152 -76l40 48l-24 612l-4 12z" />
    <glyph glyph-name=".null" horiz-adv-x="0" 
 />
    <glyph glyph-name="nonmarkingreturn" horiz-adv-x="569" 
 />
    <glyph glyph-name="space" unicode=" " horiz-adv-x="569" 
 />
    <glyph glyph-name="space" unicode="&#xa0;" horiz-adv-x="569" 
 />
    <glyph glyph-name="exclam" unicode="!" horiz-adv-x="364" 
d="M13 1627h324v-4q-48 -40 -48 -80q20 -367 20 -588q0 -88 -68 -432h-92l-8 8v4q0 64 -52 468v128q0 429 -52 468l-24 24v4zM173 419q64 0 140 -68q-3 -192 -24 -192l-60 8l-64 -16h-4q-76 0 -76 112v4q20 84 84 152h4z" />
    <glyph glyph-name="quotedbl" unicode="&#x22;" horiz-adv-x="603" 
d="M0 1694h324v-4q-52 -38 -52 -100v-88q0 -63 -60 -224q0 -26 -12 -28h-88l-8 8v8q0 66 -44 208q-11 174 -36 184q0 8 -24 32v4zM404 1694h328v-8q-52 -27 -52 -84v-100q0 -63 -60 -224q0 -26 -12 -28h-88l-8 8v8q0 66 -44 208q-9 128 -28 180l-36 36v4z" />
    <glyph glyph-name="numbersign" unicode="#" horiz-adv-x="1920" 
d="M1008 1592l156 -112l-256 -384l432 28q9 24 16 24h4l4 -20h36v-4l-20 -28l4 -12h4l268 468h4l156 -112l-228 -344h4l312 16l4 -4v-116l-8 -8h-384q-10 -6 -232 -340h28v-4l-36 -40l540 28l4 -4v-116l-8 -8h-692q-8 -24 -144 -220h-4l20 92v4h-4q0 -8 -288 -376v8l256 492
h-144v8l100 24v4h-12l-436 -4l-140 -212h-4l20 92v4h-4q0 -8 -288 -376v8l268 516h-4l-12 4l-300 8v8q344 19 344 32l88 172h8l12 -60h4l152 288h-128v8l68 16v4l-460 16v8l572 40q36 80 44 80h4l24 -68q12 7 268 468l4 4h4zM596 636v4l24 120v4h-4l-88 -140h24q40 0 40 8
l4 -4h4l228 16v-4q-1 -7 -32 -20v-8l224 12q34 54 64 124h8l12 -60h4l156 296h-364v8l100 24v4h-140l-260 -384h-4zM464 1020h8v-8h-8v8zM1268 724l-52 -84h40l16 80v4h-4z" />
    <glyph glyph-name="dollar" unicode="$" horiz-adv-x="949" 
d="M577 1701l8 -8v-184q31 0 148 -144q168 -171 168 -204q32 -69 32 -92v-20q0 -63 -168 -88l-96 -20v12q68 46 68 68v4q-15 48 -152 156v-348q372 -358 372 -432v-8q0 -28 -40 -40q0 -24 -204 -164l-216 -152l-16 -400h-8q-28 376 -36 376q-27 -16 -48 -16h-4q-21 0 -96 92
q-211 229 -212 256q-28 70 -28 100v8q0 51 140 112l136 28v-4q-84 -64 -84 -112q26 -77 180 -240v4l-28 344h4l40 -44q0 100 -28 120q-377 389 -392 448v8q77 84 312 244l100 72l-16 264l4 4h160zM317 1149q16 -51 80 -112v4l-4 92l52 -44v4l-8 180l-20 4q-59 0 -100 -120
v-8zM541 513v-260l88 96l-4 4l4 20v8q0 31 -88 132z" />
    <glyph glyph-name="percent" unicode="%" horiz-adv-x="1529" 
d="M332 1576q143 -97 160 -124q60 -56 60 -304l4 -124l4 -24q0 -72 -268 -168l-24 -4q-45 0 -116 72q-87 59 -152 148l20 368q248 160 312 160zM1172 1548q20 0 164 -108v-4q-540 -808 -568 -840v8l24 116v4h-4q-227 -355 -292 -444v8l16 84v4h-4q-11 -23 -288 -376v8
l388 740h4l12 -60h4q241 460 248 460q31 -68 36 -68zM200 1392q7 -448 20 -448q23 -36 52 -44q80 32 80 68v108q0 284 -36 416q-95 -45 -116 -100zM1292 816q172 -107 172 -140q48 -58 48 -180q8 -70 8 -228l4 -28q0 -67 -248 -160q-18 -8 -52 -8q-41 0 -140 96
q-98 74 -116 124q13 372 28 372q241 152 296 152zM1168 636l8 -432q14 -38 56 -64q66 23 84 60v116q0 286 -36 416h-4q-99 -53 -108 -96z" />
    <glyph glyph-name="ampersand" unicode="&#x26;" horiz-adv-x="1219" 
d="M500 1532q236 -308 236 -320q-42 -440 -52 -440l-108 -56q36 -41 96 -140l100 -148q204 217 204 240q-25 38 -128 72v8l360 -28l4 -4v-8q-21 0 -116 -120q-156 -164 -252 -280q55 -71 184 -268q55 -32 72 -32v-8h-244l-8 8q20 29 20 44q-63 139 -92 180
q-97 -117 -144 -124q-160 -92 -176 -92l-304 12l-144 184l4 16l-12 320v60q0 84 48 116l108 116v4q0 27 -120 124v356q0 14 268 136zM268 1356l8 -492l172 -76q0 10 40 52l-4 16l-24 564zM244 748v-4l-48 -512q7 0 56 -100l12 4l204 8h60q5 18 168 192q-212 300 -248 340z
" />
    <glyph glyph-name="quotesingle" unicode="'" horiz-adv-x="391" 
d="M0 1694h324v-4q-52 -38 -52 -100v-88q0 -63 -60 -224q0 -26 -12 -28h-88l-8 8v8q0 66 -44 208q-11 174 -36 184q0 8 -24 32v4z" />
    <glyph glyph-name="parenleft" unicode="(" horiz-adv-x="563" 
d="M550 1842h40q-66 -166 -104 -166q-209 -86 -209 -170v-1396q9 -61 164 -166l9 -39q-6 -80 -17 -80q-62 0 -96 44q-329 252 -329 371l-8 210l4 237v103q0 771 24 771q261 181 462 261z" />
    <glyph glyph-name="parenright" unicode=")" horiz-adv-x="592" 
d="M100 1826q199 -80 459 -261q24 0 24 -771v-103l4 -237l-8 -210q0 -119 -327 -371q-34 -44 -96 -44q-11 0 -16 80l8 39q155 105 163 166v1396q0 84 -207 170q-38 0 -104 166h40z" />
    <glyph glyph-name="asterisk" unicode="*" horiz-adv-x="738" 
d="M347 1840h72l8 -8v-304h4l72 52h8v-28h4l184 132q40 -57 40 -76v-4l-288 -168v-4l124 -68v-8l-28 4h-4v-4q106 -66 152 -104h-8l-280 124v-152h-8l-4 20l-8 -8l-8 -172h-8v4l-36 324l-120 -72h-4v4l12 16v4h-4l-156 -76l232 184q-84 37 -84 44q0 9 20 12q-3 8 -204 104v4
l36 68h12l268 -156v4l-8 84h4l20 -12v4z" />
    <glyph glyph-name="plus" unicode="+" horiz-adv-x="830" 
d="M500 1327l8 -8v-400h4l76 8l4 -4l-20 -40l260 28l4 -4v-116l-8 -8h-320v-32h-8l-12 32h-16v-120l4 -160h-8l-20 48h-4l-16 -260h-8l-60 468h4l28 -20l-4 28v16h-40v4l36 28l-4 4l-180 -4h-60l36 28l-220 16v8l396 60l4 -4v-4l-16 -20v-4h4l28 4l-16 140h4l40 -20v4
l-24 300l4 4h120z" />
    <glyph glyph-name="comma" unicode="," horiz-adv-x="195" 
d="M17 -1h144l4 -4h4l-68 -236h-8l-20 68h-4q-68 -168 -76 -168h-4q-6 52 -16 52l-120 -172h-8l8 208h4q6 0 24 -40h4q17 164 28 164l44 -48q49 176 60 176z" />
    <glyph glyph-name="hyphen" unicode="-" horiz-adv-x="904" 
d="M391 854l4 -4v-4l-16 -20v-4l248 32l4 -4l-20 -40l260 28l4 -4v-116l-8 -8h-480v4q0 8 48 28v4h-4l-216 -4h-36l36 28l-220 16v8z" />
    <glyph glyph-name="hyphen" unicode="&#xad;" horiz-adv-x="904" 
d="M391 854l4 -4v-4l-16 -20v-4l248 32l4 -4l-20 -40l260 28l4 -4v-116l-8 -8h-480v4q0 8 48 28v4h-4l-216 -4h-36l36 28l-220 16v8z" />
    <glyph glyph-name="period" unicode="." horiz-adv-x="301" 
d="M208 256q29 -60 92 -60l12 -96q-100 -16 -100 -100h-100q-22 0 -44 52q-16 24 -64 36v8l-4 76q80 9 80 52q0 25 128 32z" />
    <glyph glyph-name="slash" unicode="/" horiz-adv-x="1122" 
d="M960 1552l156 -112q-556 -836 -568 -844v4l24 120v4h-4q-243 -379 -292 -444h-4l20 92v4h-4q0 -8 -288 -376v8l384 740h8l12 -60h4q212 408 248 460h4l24 -68q12 7 268 468l4 4h4z" />
    <glyph glyph-name="zero" unicode="0" horiz-adv-x="1006" 
d="M544 1576h36q256 -294 256 -356q48 -153 48 -876l4 -32q-34 -124 -332 -280q-44 -18 -124 -32q-74 0 -120 60q-312 246 -312 348v392q0 334 20 488q149 112 344 212q162 76 180 76zM272 1228v-676h4l68 196h8l4 -32h4l112 308h8q7 -40 16 -40l84 220l-64 212h-4
q-240 -85 -240 -188zM600 1028l-164 -360h-8l8 68v4h-4l-128 -292h-8l8 52v4h-4l-28 -68v-140q0 -64 160 -172q188 67 188 120v480q0 162 -12 304h-8z" />
    <glyph glyph-name="one" unicode="1" horiz-adv-x="390" 
d="M275 1598h4v-4l4 -924h-8l-56 112h-4v-4l8 -488h-8q-37 80 -44 80l-4 -4v-4l-32 -420h-8l-112 768h4l56 -44l-64 480l4 4l76 -40v8l-16 168l-236 24v8q163 64 324 172q62 45 112 108z" />
    <glyph glyph-name="two" unicode="2" horiz-adv-x="909" 
d="M260 1585h32q230 -93 452 -244l72 -62v-211l4 -224q-6 -67 -160 -240q-157 -161 -172 -161q-18 -8 -56 -8q-40 8 -144 82h-4l-40 -294h384q87 0 176 116v-8l-68 -331h-4q-140 12 -388 12h-336l-8 9q72 467 80 484q30 41 208 174h8q61 -88 152 -116q136 112 136 161v509
q0 115 -232 174l-36 17q-64 -210 -64 -249v-29l-4 -16q7 -57 40 -124q-214 188 -248 227q0 50 220 352z" />
    <glyph glyph-name="three" unicode="3" horiz-adv-x="816" 
d="M508 1585q192 -234 192 -247l8 -410l-124 -112l112 -126v-560q-215 -130 -236 -130l-300 13q-146 191 -156 217q0 57 104 130q54 33 140 46v-5q-68 -94 -68 -108q0 -13 80 -172l12 4l180 9l40 63l-20 577h-208l-8 8q24 105 36 105l160 4l40 63l-24 514l-236 -92v-134
q0 -71 76 -146v-4q-66 0 -260 71q-48 30 -48 37v147q219 132 508 238z" />
    <glyph glyph-name="four" unicode="4" horiz-adv-x="1006" 
d="M440 1860h8l-52 -352l84 100h4l-104 -447q83 120 140 180h4l-136 -666h136v29l-8 304h180l12 -14q3 -309 8 -309q81 11 196 119h4v-5l-8 -352l-4 -5q-109 15 -200 15v-5l-20 -357q0 -44 44 -90v-5h-272v5q60 55 60 261q8 0 8 191h-80l-440 -10l-4 5v5q138 287 180 395h-4
l-108 -53l-4 5l196 509h-4q-66 -52 -84 -52z" />
    <glyph glyph-name="five" unicode="5" horiz-adv-x="993" 
d="M792 1589l76 -340h-4q-67 82 -136 105q-30 17 -132 17h-360l4 -4v-298h4q128 78 216 84q66 0 120 -63q304 -261 304 -352l-8 -319v-113q-110 -94 -264 -168q-178 -92 -324 -138h-44q-244 299 -244 348v4l280 227v-5q-44 -70 -44 -151q0 -70 80 -264q252 80 252 105
q44 45 44 84v511q-22 75 -160 164q-160 -56 -216 -126l16 -84v-4q-244 49 -244 63l-8 17v63l4 608l4 4h192q320 0 592 25z" />
    <glyph glyph-name="six" unicode="6" horiz-adv-x="1073" 
d="M559 1598h5q26 0 96 -93q216 -232 216 -261q41 -90 41 -118q0 -85 -174 -106l-96 -25l-5 4v9q69 49 69 71v5q-37 102 -280 257l-41 12h-9q-31 0 -51 -33q-73 -57 -73 -304q218 -42 417 -126q240 -114 261 -199l5 -46v-228q0 -31 -183 -168q-325 -249 -404 -249h-14
q-289 315 -289 333q-22 0 -50 692l5 189q7 48 270 220q218 152 284 164zM248 797v-4q14 -437 73 -473q60 -75 124 -118h14l252 253v47q0 188 -463 295z" />
    <glyph glyph-name="seven" unicode="7" horiz-adv-x="1006" 
d="M7 1594q147 -12 272 -12h204l420 12v-4l-304 -588h4l112 48l4 -4l-256 -540h4l80 48h4v-4l-344 -696h-8l96 412l-84 -84v8l196 560q-81 -102 -136 -152h-4v4l252 804h-4q-306 0 -412 -44q-53 -29 -108 -72h-4l4 280q4 24 12 24z" />
    <glyph glyph-name="eight" unicode="8" horiz-adv-x="928" 
d="M555 1606q262 -327 262 -339q-47 -466 -58 -466l-120 -59l178 -191q-45 -428 -58 -428l-253 -123l-337 13l-160 195l4 17l-13 339v63q0 89 53 123l120 123v4q0 29 -133 132v377q0 14 297 144zM297 1420l9 -522l191 -80q0 10 45 55l-5 17l-26 597zM271 775v-4l-53 -542
q7 0 62 -106l13 4l200 9q13 25 49 59l-5 17l-22 479z" />
    <glyph glyph-name="nine" unicode="9" horiz-adv-x="967" 
d="M536 1588h12q30 -27 252 -325q44 -321 44 -824v-50q-10 -60 -204 -199q-218 -180 -280 -190h-8q-19 0 -160 139q-148 134 -148 144q-44 100 -44 144v12q0 70 168 97l64 21l8 -12l-60 -55l-4 -25q37 -85 180 -199q57 -34 104 -34q74 0 100 47q52 57 52 126l8 288l4 21
q-71 -30 -184 -30h-12q-136 0 -320 106q-84 47 -84 190v118l-4 68q0 39 176 181q267 241 340 241zM224 1136v-59q0 -160 200 -182h20q106 0 184 30v8q0 296 -108 393q-46 59 -72 59h-4z" />
    <glyph glyph-name="colon" unicode=":" horiz-adv-x="340" 
d="M221 1280q27 -60 92 -60l12 -96q-92 -25 -92 -64l-4 -36l-12 -4l-112 4q-29 84 -84 84l-4 12l-4 76q73 0 88 64q0 9 120 20zM217 600q35 -64 96 -64l12 -96q-96 -21 -96 -72q0 -28 -8 -28h-96q-28 0 -36 44q-19 29 -72 48v8l-4 76q77 0 88 64z" />
    <glyph glyph-name="semicolon" unicode=";" horiz-adv-x="341" 
d="M213 1312q24 -56 88 -56q11 0 16 -100q-9 -9 -44 -12q-52 -26 -52 -92h-4l-116 4q-32 84 -84 84l-12 88q76 12 76 36q11 36 40 36zM101 632h144l4 -4h4l-68 -236h-8l-20 68h-4q-68 -168 -76 -168h-4q-7 52 -16 52l-120 -172h-8l8 208h4q6 0 24 -40h4q17 164 28 164
l44 -48q50 176 60 176z" />
    <glyph glyph-name="semicolon" unicode="&#x37e;" horiz-adv-x="341" 
d="M213 1312q24 -56 88 -56q11 0 16 -100q-9 -9 -44 -12q-52 -26 -52 -92h-4l-116 4q-32 84 -84 84l-12 88q76 12 76 36q11 36 40 36zM101 632h144l4 -4h4l-68 -236h-8l-20 68h-4q-68 -168 -76 -168h-4q-7 52 -16 52l-120 -172h-8l8 208h4q6 0 24 -40h4q17 164 28 164
l44 -48q50 176 60 176z" />
    <glyph glyph-name="less" unicode="&#x3c;" horiz-adv-x="501" 
d="M478 1610v-4l-4 -16q-96 -140 -129 -140h-36q-13 -12 -72 -12q-80 0 -80 -56l4 -16q0 -23 92 -88h64l105 8h4l-56 -156l-109 12q-10 0 -52 44q-179 133 -209 228v8l145 156q24 44 84 44h225q20 0 24 -12z" />
    <glyph glyph-name="equal" unicode="=" horiz-adv-x="922" 
d="M437 927v-4l-16 -24v-4l252 32v-4l-20 -36h4l256 28l4 -4v-116l-8 -8h-348l-140 -4v8l56 28v4h-4l-196 -4h-56q0 7 40 24v4l-188 12l-4 4v8zM21 675h488v-8l-48 -24v-4h4l164 4h80v-8l-36 -16v-4l220 -16v-8l-396 -60v8l16 24h-4l-248 -32l-4 4v4q9 0 20 36l-260 -28
l-4 4v116z" />
    <glyph glyph-name="greater" unicode="&#x3e;" horiz-adv-x="479" 
d="M28 1613h224q59 0 84 -44l144 -156v-8q-30 -95 -208 -228q-42 -44 -52 -44l-108 -12l-56 156h4l104 -8h64q92 65 92 88l4 16q0 56 -80 56q-59 0 -72 12h-36q-32 0 -128 140l-4 16v4q4 12 24 12z" />
    <glyph glyph-name="question" unicode="?" horiz-adv-x="798" 
d="M216 1532h32q175 -65 428 -220l92 -76v-248h8q-11 -119 -328 -392l-48 -8q-25 0 -64 60l-24 20l40 -288l-16 -8l-196 -4h-24q-12 0 -12 72v32l-4 180q25 40 140 172l4 4h4q100 -112 152 -112q136 98 136 160v316q0 110 -224 168q-11 10 -40 12q-64 -201 -64 -284
q2 -37 40 -116q-241 204 -248 220q0 44 148 244zM312 260q34 -64 92 -64l12 -96q-38 0 -80 -40q-9 -9 -20 -60h-108q-8 2 -44 68l-52 24l-8 84q71 0 84 44q0 32 72 32z" />
    <glyph glyph-name="at" unicode="@" horiz-adv-x="1292" 
d="M738 1478l2 -2v-24q0 -60 -7 -60h-2l-5 5v16q0 23 -31 23h-39l-2 -65l2 -14h10q17 0 17 28l2 2h3q4 0 4 -7q-2 -76 -12 -76q-7 2 -7 13v24l-12 2l-5 -7v-51l5 -5h7q44 0 44 33l2 2h5l5 -4q-5 -75 -12 -75h-3q-5 0 -7 26l-14 4h-82l-36 -2l-2 2v7q45 3 45 10v39l-2 109
l-46 10v4l3 3v2l9 -2l132 2q22 0 22 14q1 14 7 14zM345 1459h72l4 -4q0 -7 -26 -7h-5v-5q44 -106 51 -109q13 0 38 93h-2l-36 7v2l7 7h98v-5q0 -3 -33 -14l-77 -158h-3q-13 20 -69 138h-5q-14 -10 -62 -128q-5 0 -5 -7l-3 -3h-4q-9 12 -56 124l-21 37q-34 0 -34 7l5 4h113
l5 -4q-6 -6 -36 -7l-3 -3v-2l36 -88h7q46 99 46 111l-17 3h-17l-4 4v5zM918 1445h14q21 0 39 -23q18 23 38 23h15q30 0 40 -41v-12q0 -24 -69 -109q-13 -31 -22 -35h-5q-3 0 -33 53q-58 64 -58 91v12q10 41 41 41zM1110 1222q30 0 96 -112q67 -88 67 -95q-10 -353 -38 -353
q-89 -54 -164 -54q-31 61 -47 81q12 -425 16 -425l-2 -3h-2l-44 156h-2v-4l5 -581l-3 -3h-2l-41 133q-5 0 -5 -7q-31 -384 -38 -417h-2l-113 849h5l67 -56h2l-55 361l-19 2q-94 0 -115 -42v-4l2 -489q0 -75 41 -135q38 -15 38 -18l-2 -3h-3l-307 7l-2 3v2q67 63 67 135
l-2 102v161l-3 139q-59 -50 -151 -67l3 -349q0 -12 45 -65l-2 -3q-257 26 -269 31v2q53 43 53 49l-2 330q-75 27 -152 126q-10 0 -14 44q10 30 41 30l86 7l3 -2v-5q-66 -38 -70 -46v-5q70 -65 106 -86h2l2 326v144q0 81 -36 81l-2 3h-2v6l40 3h211l5 -5q-45 -29 -45 -65
v-281l-3 -10l3 -2l-3 -16l3 -19q-5 -22 -5 -63v-74q46 12 153 102v451l-36 49l8 5l244 2l3 -2v-5q-32 -33 -48 -58l-3 -139v-142l-2 -86h132l-22 146h3l74 -91v3q-37 339 -48 339l-65 49q0 8 226 19q0 3 139 9zM1014 1138l-5 -83q0 -158 17 -293q91 9 91 14v2l-5 323l-5 23
l5 5q-15 12 -72 19zM1055 720v-3l38 -42q14 20 14 33z" />
    <glyph glyph-name="A" unicode="A" horiz-adv-x="1201" 
d="M453 1383h304v-8q-22 0 -32 -64v-28q0 -36 232 -744l12 -44l104 56h8v-4q-31 -65 -88 -124q97 -301 124 -360q38 -44 76 -56v-8h-404v4q29 27 68 44q16 21 16 36v12q0 43 -72 248q-87 0 -344 228q-184 -561 -184 -596v-8q0 -33 52 -52v-8l-152 -4l-160 4v8q56 0 92 160
l184 568q-71 0 -160 -80l40 -80q-77 77 -80 88v8q121 144 220 144q172 501 172 560v20q0 51 -28 76v4zM593 1031l-112 -380q196 -170 284 -180l-168 560h-4z" />
    <glyph glyph-name="B" unicode="B" horiz-adv-x="825" 
d="M552 1524l236 -316q-44 -431 -52 -444l-108 -56v-4l160 -176q-44 -394 -52 -404q-229 -120 -240 -120h-12l-484 -4v8q96 29 96 120l-8 1060q0 55 -72 108v4l304 128q0 19 144 64q70 32 88 32zM316 1344l12 -488l168 -76l40 56l-24 576h-4zM320 760l8 -668h4
q172 44 172 60l32 44l-24 468z" />
    <glyph glyph-name="C" unicode="C" horiz-adv-x="918" 
d="M544 1488h36q23 -19 196 -240q52 -62 52 -100l-280 -216h-4q37 53 48 116q0 94 -80 284q-220 -92 -220 -140q-20 -23 -20 -52v-852q0 -55 160 -164q130 40 184 100l4 4v200l8 8l252 -56l4 -4v-20l4 -44q-30 -109 -280 -256q-117 -54 -176 -56q-69 0 -104 48
q-324 250 -324 376l-4 168v120q0 492 28 492q256 187 460 264z" />
    <glyph glyph-name="D" unicode="D" horiz-adv-x="935" 
d="M16 1492h344q0 -8 56 -24q222 -91 432 -240q48 -29 48 -52q16 -222 16 -452v-132q0 -244 -24 -244q0 -28 -180 -200l-172 -140l-72 -8h-436l-28 4v8q96 29 96 120l-8 1244q0 68 -72 108v8zM356 1352l-36 -208l8 -936q0 -43 152 -84q141 87 156 156v872q0 88 -280 204v-4z
" />
    <glyph glyph-name="E" unicode="E" horiz-adv-x="922" 
d="M824 1524q8 -11 80 -328h-4q-91 116 -196 116h-24l-320 -4v-448h272q51 0 92 104h8l-4 -380h-8q-24 112 -152 112h-196v-480l288 -4h48q103 0 192 116h4q-72 -318 -80 -328h-4q-276 28 -516 28h-148l-92 -16q-8 4 -64 304h4q79 -73 136 -88v4l-12 1060q-55 -18 -124 -88
h-4q56 308 64 308h8l84 -16h168q219 0 500 28z" />
    <glyph glyph-name="F" unicode="F" horiz-adv-x="1005" 
d="M908 1504q76 -301 76 -328q-99 116 -188 116l-372 -4l-40 -4l8 -400h276q60 0 96 84h8l-4 -356h-8q-27 108 -148 108h-220v-368h-4q-80 108 -80 124h-4v-8l8 -488l4 -48h-8l-56 96h-8v-4l-40 -476h-8l-148 848h4l68 -44h4l-80 520l4 4l100 -44l-88 660v4q198 -20 296 -20
h80q190 0 472 28z" />
    <glyph glyph-name="G" unicode="G" horiz-adv-x="914" 
d="M544 1532h36q24 -20 132 -160q116 -132 116 -184l-280 -212v4q44 76 44 108l-4 20v28q0 40 -72 236h-4q-240 -85 -240 -188v-896q0 -55 160 -164q130 40 184 100l4 4v376q-37 -16 -68 -16h-32q-56 0 -164 48v8q42 0 308 120q75 28 136 28h52q30 0 32 -12v-424l4 -44
q-30 -109 -280 -256q-117 -54 -176 -56q-67 0 -100 44q-297 236 -328 348l-4 248v140q0 310 20 464q149 112 344 212q71 37 180 76z" />
    <glyph glyph-name="H" unicode="H" horiz-adv-x="1100" 
d="M875 1491h24v-4q-76 -77 -76 -115q3 -490 8 -490q89 45 132 45q45 0 112 -20v-8q-68 -65 -68 -136h-4q-49 49 -76 49h-4q-58 0 -92 -33l12 -769q0 -71 80 -102v-9h-40l-380 5v8q84 44 84 98v613h-4q-99 -58 -204 -90v-420q0 -68 84 -107v-8h-52l-408 4v8q44 0 96 74
q8 19 8 54v419q-60 9 -136 66q-64 64 -64 148v17q56 45 116 45h32v-8q-88 -22 -88 -58v-8q0 -84 140 -128v8l-4 671q0 67 -76 107v8h384v-4q-44 -45 -44 -86l12 -708h4q54 17 204 103v650q0 69 -80 99v8z" />
    <glyph glyph-name="I" unicode="I" horiz-adv-x="451" 
d="M20 1500h344v-4q-36 -40 -44 -87l8 -1293q0 -53 68 -99l20 -8v-9h-48l-368 4v9q40 0 88 78l8 51l-8 1242q0 51 -60 107h-8v9z" />
    <glyph glyph-name="J" unicode="J" horiz-adv-x="700" 
d="M332 1497l136 -12l200 4h20v-8q-52 0 -52 -184v-400l-4 -740q-94 -58 -416 -196q-156 -99 -192 -112h-8q-22 13 -136 288v24q0 37 224 152v-4q-48 -51 -48 -80q37 -177 52 -200q77 0 168 64q120 91 120 108v1148q0 76 -68 144z" />
    <glyph glyph-name="K" unicode="K" horiz-adv-x="1148" 
d="M20 1509h344v-9q-40 -35 -40 -133v-324q14 0 44 56q193 215 276 384l12 9l368 13v-9q-126 -42 -188 -142l-392 -518v-5q71 -140 420 -583q132 -209 184 -267q60 -43 80 -43v-9l-224 5l-208 -5v9q60 30 60 73q0 36 -204 302l-212 298h-4v-47h-8l4 -419v-22q0 -76 84 -108
v-8h-48l-368 4v9q104 34 104 129l-8 1222q0 96 -76 129v9z" />
    <glyph glyph-name="L" unicode="L" horiz-adv-x="1024" 
d="M348 1507v-4q-72 -77 -72 -164l12 -1148q0 -45 164 -76q160 -48 244 -48h12q76 14 76 68q32 116 32 160q-14 34 -52 80l4 4h4q212 -171 224 -192v-16q-113 -344 -132 -344q-110 63 -460 132q-308 35 -308 64q-40 79 -40 116l-16 864v408q-14 76 -40 76v8h224q63 0 124 12
z" />
    <glyph glyph-name="M" unicode="M" horiz-adv-x="1441" 
d="M994 1497h400v-4q-60 -70 -60 -184l-52 -400l108 44l-80 -524l68 44h4l-144 -852h-8l-44 488h-4l-56 -96h-8l12 540v4h-4q0 -10 -76 -124v-4h-8v512l4 84v4h-4l-344 -720h-4q-23 27 -320 600h-4v-500h-4q-80 108 -80 124h-4v-8l12 -532h-4q-25 29 -60 92h-4l-44 -480h-8
l-148 848h4l68 -44h4l-80 520l4 4l100 -44v4q-57 516 -64 516q-35 52 -48 52v8h4l396 24h12v-4q-24 -25 -24 -68v-16q0 -19 292 -760v-4h4q332 758 332 776v24q0 48 -36 48v8z" />
    <glyph glyph-name="N" unicode="N" horiz-adv-x="1108" 
d="M-18 1567h296l68 -4v-4q-20 -28 -20 -72v-4q36 -75 444 -1156h4v1059q0 52 -60 88v4h344v-8q-64 0 -64 -160v-1126q0 -169 48 -173v-9h-392v9q52 35 52 67q-48 121 -356 1012h-4v-8l4 -561v-72h-8l-76 131h-4v-4l12 -565h-4q-60 89 -60 101h-4l-44 -502h-8l-148 886h8
l68 -47l-80 549l4 4h4l96 -47v5q-55 535 -64 535l-56 68v4z" />
    <glyph glyph-name="O" unicode="O" horiz-adv-x="918" 
d="M544 1501h36q27 -22 224 -264q76 -71 76 -729l4 -187l4 -23q-30 -104 -280 -245q-117 -51 -176 -53q-67 0 -100 42q-298 227 -328 332l-4 237v149q0 470 28 470q256 179 460 252zM272 1176v-901q0 -53 160 -157q130 39 184 96l4 4v492q0 384 -108 642h-4
q-236 -87 -236 -176z" />
    <glyph glyph-name="P" unicode="P" horiz-adv-x="814" 
d="M332 1504l8 -8v-108l204 80l240 -316l-52 -484l-228 -120l-164 168l4 -280v-164h-4q-80 108 -80 124h-4v-8l8 -488l4 -48h-8l-56 96h-8v-4l-40 -476h-8l-148 848h4l68 -44h4l-80 520l4 4l100 -44v4l-88 744l4 4h316zM340 1292v-532q127 -76 152 -76l40 48l-24 612l-4 12z
" />
    <glyph glyph-name="Q" unicode="Q" horiz-adv-x="931" 
d="M557 1496h36q27 -22 224 -266q76 -87 76 -682l4 -242l4 -23q0 -55 -152 -166q108 -144 108 -154h-4l-68 27l164 -219v-4l-48 15q104 -178 104 -189h-12l-296 282v4h4l40 3q-137 139 -144 139q-109 -38 -152 -38q-67 0 -100 41q-301 232 -328 336l-4 238v151q0 473 28 473
q256 181 460 255zM285 1169v-910q0 -53 164 -158l108 39l-216 235q13 17 144 100l148 -200v424q0 379 -108 647h-4q-236 -88 -236 -177z" />
    <glyph glyph-name="R" unicode="R" horiz-adv-x="816" 
d="M354 1509l8 -8v-102h4q127 65 160 76l256 -301l-48 -460q-130 -51 -164 -72q9 -187 212 -654q42 -84 92 -84q42 0 236 -121l48 -19v-8h-32q-77 0 -376 65l-76 7l-56 -7l-4 4q12 19 12 38v30q0 102 -200 665q0 11 -68 114h-4v-7l12 -327h-4q-80 102 -80 117h-4v-7l8 -464
l4 -45h-8l-56 90h-8v-3l-40 -453h-8l-148 806h4l68 -41h4l-80 494l4 4l100 -42v4l-88 707l4 4h316zM362 1293v-528q70 -57 108 -80l60 56l-24 624z" />
    <glyph glyph-name="S" unicode="S" horiz-adv-x="975" 
d="M572 1501h4q25 0 100 -96q200 -210 200 -231q40 -83 40 -122q0 -70 -168 -92l-92 -22l-4 4v7l64 52l4 22q-80 134 -292 246l-20 4h-12q-55 0 -96 -121v-8q0 -41 188 -228l368 -379q84 -99 84 -129v-14q0 -29 -40 -41q0 -22 -72 -66q-366 -287 -452 -287h-16
q-43 36 -284 313q-44 101 -44 121v22q0 51 148 111l128 25v-3q-84 -62 -84 -114q36 -87 200 -262q33 -22 48 -22q71 93 140 158l-4 4l4 19v11q0 50 -524 603l-88 110v19q69 74 264 209q241 177 308 177z" />
    <glyph glyph-name="T" unicode="T" horiz-adv-x="1130" 
d="M1029 1511l70 -340h-3q-92 107 -168 107l-254 -4v-3l4 -145v-802h-7l-66 115v3h-4v-3l11 -499h-7l-49 88h-4l-38 -451h-7v4l-125 784h3l60 -41v4l-70 480l94 -40l-59 506h-247q-102 0 -181 -96h-4q42 278 56 326q161 -19 348 -19h163q236 0 484 26z" />
    <glyph glyph-name="U" unicode="U" horiz-adv-x="1028" 
d="M196 1580q176 0 176 -21q-44 -26 -44 -98v-1156q0 -59 160 -174q130 43 184 106l4 4v1127q0 34 -64 136v4h4q71 -8 368 -17l12 -13q-55 -38 -56 -186v-915l4 -47q-21 -104 -272 -266q-129 -64 -184 -64q-74 0 -120 64q-280 231 -312 351v4l-4 399l12 686q-18 29 -64 68v4
z" />
    <glyph glyph-name="V" unicode="V" horiz-adv-x="1202" 
d="M1400 1676v-9q-219 -157 -321 -538l-294 -1065q-88 -68 -210 -68q-87 -28 -139 -73h-4q7 17 119 128q-297 1109 -345 1236q-29 82 -139 184l-67 43v4q217 -30 373 -30h20q15 -18 150 -577l119 -449h4l326 1188h3l64 -4z" />
    <glyph glyph-name="W" unicode="W" horiz-adv-x="1361" 
d="M140 1623h16l264 -18l4 -5v-5q-72 -31 -72 -83h-4q0 -1157 28 -1157q32 -37 52 -37h36q37 80 136 249l-8 567l-4 19q0 26 92 129q0 10 64 87h4v-4l-16 -32q40 -56 40 -97q8 -419 24 -780l60 -87q18 -63 36 -92q82 79 168 221q20 21 20 41v286l4 143q0 395 -36 466
q-40 60 -68 60v9l260 -4h8l160 4v-9q-96 -33 -96 -111l4 -816q-246 -390 -356 -549h-12q-46 0 -100 88l-160 258h-4q0 -9 -64 -101q-47 -139 -192 -235q-29 -28 -56 -28h-8q-45 47 -244 378q-12 98 -12 521v604q0 74 -108 106v9z" />
    <glyph glyph-name="X" unicode="X" horiz-adv-x="1188" 
d="M196 1500q12 -9 260 -484q8 -19 16 -21l24 73h4q31 -47 76 -150h4q45 103 76 150h4l24 -73q12 7 268 501l4 4h4l156 -120q-410 -661 -428 -681l60 -124h4l12 65h8l384 -801q-288 394 -288 402h-4v-4l20 -98h-4l-272 432l-12 -26l12 -68q-9 0 -28 43h-4q-19 -43 -28 -43v4
l12 64l-12 26l-272 -432h-4l20 98v4h-4q0 -8 -288 -402v9l384 792h8l12 -65h4l60 124q-18 20 -428 681z" />
    <glyph glyph-name="Y" unicode="Y" horiz-adv-x="997" 
d="M616 1706q50 -8 368 -16l12 -8q-52 -53 -52 -132l-4 -128v-488l4 -44q-47 -128 -332 -284l-8 -8l44 -516q-25 24 -84 128h-4l4 -24l8 -372q-14 10 -60 92h-4v-8l12 -324h-8l-140 552h4l68 -44v8l-96 364h4l96 -40v4q-49 208 -68 208q-320 261 -320 360v68l4 364
q-8 27 -60 68v4h4l320 8q48 -4 48 -16q-48 -23 -48 -120v-496q0 -53 160 -164q188 68 188 116l-4 764q-1 25 -60 120z" />
    <glyph glyph-name="Z" unicode="Z" horiz-adv-x="1082" 
d="M1052 1496v-4l-740 -1284v-4l16 4q564 20 564 55q74 26 156 129h8q-108 -329 -132 -384h-4l-920 -8v8l740 1280h-4q-512 0 -512 -25q-73 -23 -172 -155v9l116 379h884z" />
    <glyph glyph-name="bracketleft" unicode="[" horiz-adv-x="403" 
d="M508 1852h120l8 -8v-124l-8 -8h-156q-192 -72 -192 -120l-4 -16v-1300q0 -65 168 -124q9 -12 28 -12h156l8 -8v-124l-8 -8h-120q-83 0 -292 156q-98 43 -188 176q-24 25 -24 240l-4 48l4 240v132l4 476q52 139 212 236q210 140 248 140z" />
    <glyph glyph-name="backslash" unicode="\" horiz-adv-x="1113" 
 />
    <glyph glyph-name="bracketright" unicode="]" horiz-adv-x="439" 
d="M-192 1847h120q83 0 292 -156q100 -45 184 -172l24 -56l4 -476v-132l4 -240q-4 -288 -32 -288q-57 -110 -224 -204q-168 -124 -252 -128h-120l-8 8v124l8 8h156q192 72 192 120l4 16v1300q0 65 -168 124q0 8 -28 12h-156l-8 8v124z" />
    <glyph glyph-name="asciicircum" unicode="^" horiz-adv-x="536" 
d="M240 1651h8q95 -30 228 -208q44 -42 44 -52l12 -108l-156 -56v4l8 104v64q-65 92 -88 92l-16 4q-56 0 -56 -80q0 -59 -12 -72v-36q0 -32 -140 -128l-16 -4h-4q-12 4 -12 24v224q0 59 44 84z" />
    <glyph glyph-name="underscore" unicode="_" horiz-adv-x="900" 
d="M17 143h488v-8l-48 -24v-4h4l164 4h80v-8l-36 -16v-4l220 -16v-8l-396 -60v8l16 24h-4l-248 -32l-4 4v4q9 0 20 36l-260 -28l-4 4v116z" />
    <glyph glyph-name="grave" unicode="`" horiz-adv-x="682" 
d="M0 1699h324v-4q-48 -42 -48 -88v-100q0 -63 -60 -224q0 -26 -12 -28h-88l-8 8v8q0 66 -44 208q-11 182 -48 200l-16 16v4z" />
    <glyph glyph-name="a" unicode="a" horiz-adv-x="585" 
d="M237 1257q135 -85 236 -200l16 -32l-8 -512h44l28 -4v-4q-169 -204 -224 -204h-12q-12 0 -12 52v48l-132 -84h-8q-87 0 -160 372q19 69 224 160l40 12q-68 -67 -68 -176v-4q0 -142 64 -224q40 8 40 40v624q-164 -92 -164 -140l20 -68l-4 -4h-40q-100 113 -100 180
q0 47 168 136q0 7 52 32z" />
    <glyph glyph-name="b" unicode="b" horiz-adv-x="598" 
d="M229 1669v-8q-40 -53 -40 -104v-504q121 168 128 168q208 -116 208 -132l44 -476l-216 -308l-164 80v-84l-8 -8l-208 8v4q40 56 40 76l16 1180q0 26 -36 88h4zM293 1101l-104 -136v-476l148 -64q40 127 40 264v92q-8 272 -24 272l-56 48h-4z" />
    <glyph glyph-name="c" unicode="c" 
d="M332 1169q31 0 196 -120l28 -76l-188 -124v8q28 55 28 108q0 15 -136 136q-18 0 -40 -252l-4 -4l20 -420q14 -38 76 -72q120 109 120 172l8 76h4q16 -12 88 -108v-4l-192 -192h-108q-213 179 -216 200l-12 116v28q0 214 32 344l240 184h56z" />
    <glyph glyph-name="d" unicode="d" horiz-adv-x="629" 
d="M331 1614h240v-8q-32 -45 -40 -92l4 -60l16 -1060q8 -33 40 -84h-4l-212 -8l-4 4v84h-4l-156 -80q-180 125 -180 136l-40 640l256 144l124 -164v396l4 56q-6 29 -44 96zM263 1110q-60 -52 -60 -64l-20 -396q0 -111 44 -220q90 38 144 72v476z" />
    <glyph glyph-name="e" unicode="e" horiz-adv-x="574" 
d="M280 1172h4q31 0 200 -120l56 -204l-48 -104h-4q-95 40 -168 40h-44q-25 0 -56 -12l12 -344q14 -38 76 -72q64 102 64 236l4 4h4l88 -112q-116 -172 -132 -184h-108q-213 179 -216 200l-12 116v24q6 356 48 356q212 176 232 176zM216 844h104l68 -4l-120 260h-12
q-20 0 -32 -216z" />
    <glyph glyph-name="f" unicode="f" horiz-adv-x="755" 
d="M709 1894q33 -37 124 -216l12 -56q0 -28 -180 -124l-44 -28l-4 4v4q38 33 52 76q-42 187 -56 200h-4q-248 -182 -248 -260v-360q53 27 232 144q36 16 64 16q48 0 96 -80h-8l-72 32q-48 0 -216 -152q-71 -56 -92 -56q12 -526 28 -684q57 -65 236 -100v-8l-108 -12h-24
q-52 0 -368 68l-52 4h-16v8q120 47 120 96v632q-49 0 -128 96q-48 100 -48 160v4l20 120q48 -16 80 -16h76v212l-48 -4h-8v8q168 111 236 172h4v-120h4q308 220 328 220h12zM69 1346q16 -98 48 -140q35 -45 64 -56v248q-51 -52 -112 -52z" />
    <glyph glyph-name="g" unicode="g" horiz-adv-x="601" 
d="M194 1223h4l176 -96v24l-4 68h8l184 -100l12 -12v-512l-12 -564q-385 -336 -432 -344h-16q-15 0 -128 224l-8 40q0 40 204 144q4 12 24 12v-4q-52 -56 -52 -80l52 -200q188 124 188 196v420l-4 48l-160 -188q-208 116 -208 132l-44 476zM210 1111v-4l-24 -624l64 -52
q144 127 144 140l-16 444z" />
    <glyph glyph-name="h" unicode="h" horiz-adv-x="674" 
d="M276 1670v-8q-23 -27 -44 -80l4 -60v-404l4 -60h4q40 77 120 156l68 28l204 -144v-800q-147 -151 -292 -180l-44 -8q152 119 152 320l4 320l-4 248q0 44 -44 132h-4q-33 0 -172 -164v-580q0 -54 28 -84v-4l-260 4l-4 4v4q21 0 44 80l16 1180q0 16 -36 80h4z" />
    <glyph glyph-name="i" unicode="i" horiz-adv-x="328" 
d="M141 1514h4l48 -12h16l60 4q20 -23 20 -124v-68q-69 -68 -144 -68q-38 37 -84 148q0 120 80 120zM261 1150l8 -8l4 -196q0 -259 -28 -564q0 -40 44 -80v-4h-272v8q56 33 56 144q16 98 16 296v48l-12 352l4 4h180z" />
    <glyph glyph-name="j" unicode="j" horiz-adv-x="337" 
d="M119 1515h4l72 -20q20 8 60 8q16 -32 16 -120v-72q-75 -68 -148 -68q-79 116 -80 156q0 112 60 112zM3 1119l52 -4q268 0 268 -28q-44 0 -52 -108v-444l-8 -596l-492 -356h-8q-87 105 -148 256v24q0 37 184 132q24 20 40 20v-4q-48 -50 -48 -80l48 -196h12
q244 184 244 256v20l-20 976q0 54 -72 128v4z" />
    <glyph glyph-name="k" unicode="k" horiz-adv-x="798" 
d="M294 1746v-4l-36 -52l-24 -876q355 399 380 436v8q-25 38 -128 72v8l360 -28l4 -4v-8q-23 -2 -120 -124l-192 -208l208 -584q57 -64 80 -64v-8h-244q-8 0 -8 12q20 44 20 64l-152 476h-4l-200 -208v-252q0 -148 228 -248v-8h-4q-80 0 -396 136l-36 8h-8l-40 -4v8
q84 37 84 96l16 1300l-40 52l4 4h248z" />
    <glyph glyph-name="l" unicode="l" horiz-adv-x="239" 
d="M189 1686h8v-72l-8 -1276l-4 -40q0 -28 88 -112v-4q-268 79 -268 152l4 1128q0 72 20 72q105 48 160 152z" />
    <glyph glyph-name="m" unicode="m" horiz-adv-x="909" 
d="M404 1178h4q30 -25 132 -188l4 -28q19 15 88 124l100 68h20q128 -168 128 -188v-652q-12 -19 -212 -132l-4 4v4q48 41 48 80v56l-12 644q-22 28 -64 28q-24 0 -52 -60l-40 -56v-400l4 -116q0 -53 -64 -72l-156 -92l-4 4v4q52 44 52 80q0 241 -16 700q-20 24 -36 24l-4 4
l-12 4q-44 -3 -44 -32q-64 -100 -64 -116v-184q0 -364 32 -364q15 -16 24 -16v-8h-120l-40 4l-36 -4h-64v8q56 15 56 56l4 44l8 508q-15 39 -44 52h-8l-52 -8v8q102 38 224 164v4h8v-184h4q105 188 144 188q41 36 64 36z" />
    <glyph glyph-name="n" unicode="n" horiz-adv-x="590" 
d="M196 1152h4v-184q164 180 212 180q19 -8 136 -180v-708q-15 -20 -212 -132l-4 4v4q48 47 48 76v56l-12 692q-23 29 -56 32q-38 0 -92 -84q-12 -4 -12 -24v-188q0 -380 32 -380l24 -16v-8h-4l-160 4l-96 -4v8q56 19 56 52v624h-52l-48 -4v8q72 45 236 172z" />
    <glyph glyph-name="o" unicode="o" 
d="M332 1164q156 -108 156 -120q68 -56 68 -376l4 -192l4 -16q0 -75 -264 -168l-40 -4q-42 0 -144 100q-116 90 -116 128l20 488q250 160 312 160zM200 980l8 -556q27 -56 64 -64q84 29 84 68v140q0 357 -36 508q-91 -35 -120 -96z" />
    <glyph glyph-name="p" unicode="p" horiz-adv-x="665" 
d="M255 1288l8 -8v-108h4l160 84l216 -316l-52 -488l-200 -116h-4q-22 22 -120 168h-4v-4l4 -244v-136h-4q-84 117 -84 132h-4v-8q-12 -290 -32 -492h-8l-152 828h4l100 -40v4l-88 740l4 4h252zM263 1080v-532q4 -10 108 -84l60 56l-24 624h-4z" />
    <glyph glyph-name="q" unicode="q" horiz-adv-x="661" 
d="M207 1333l148 -64v24l8 8l252 -16l4 -4q-12 -102 -88 -1376h-8l-68 132h-8v-4l-56 -352h-8l-92 664h4l84 -68v4l-4 292q-131 -156 -140 -156q-188 108 -204 124l-44 484l216 308h4zM219 1225v-4l-24 -624q31 -19 60 -52l116 72l-12 536q0 27 -64 40q-3 8 -76 32z" />
    <glyph glyph-name="r" unicode="r" horiz-adv-x="545" 
d="M232 1269h4v-188q112 96 148 96q17 0 112 -180q16 -14 16 -32v-16q-23 -24 -212 -132l-4 4v4q41 33 52 80q-46 132 -68 132h-4q-16 -7 -32 -32v-200l8 -408q0 -72 56 -92v-8h-276v8q64 18 64 60v728l-96 -4v4z" />
    <glyph glyph-name="s" unicode="s" horiz-adv-x="563" 
d="M358 1197h4q172 -194 172 -248v-20q0 -50 -132 -64q0 -5 -48 -12l-4 4v4q12 0 20 36q0 111 -44 140q-44 20 -60 20q-54 0 -72 -80v-4q0 -27 300 -356q40 -54 40 -80q0 -28 -160 -140q-128 -100 -172 -100h-8q-160 184 -160 212l-12 44v12q0 37 100 72l60 12v-8l-12 -32
l12 -64l-4 -4v-4q28 -65 120 -104h12l40 80v12q0 34 -288 368q-40 47 -40 64v4q52 61 252 200q58 36 84 36z" />
    <glyph glyph-name="t" unicode="t" horiz-adv-x="490" 
d="M329 1560v-4l-4 -256h104q11 0 24 -88l-4 -4h-116l-16 -888l-4 -40q0 -26 88 -112v-4q-268 79 -268 152l8 900h-168v8q134 60 332 316l12 16l4 4h8z" />
    <glyph glyph-name="u" unicode="u" horiz-adv-x="627" 
d="M288 1160h260v-8q-60 -11 -60 -88v-604q0 -112 100 -144v-8l-232 -12l-4 4v180q-143 -154 -196 -172h-20q-42 42 -132 188v256l-4 376q5 20 12 20q33 -1 160 -120l16 -536q22 -28 44 -28h16q35 0 68 60q32 28 32 48v92q0 468 -28 468q-20 20 -32 20v8z" />
    <glyph glyph-name="v" unicode="v" horiz-adv-x="557" 
d="M35 1189h4q57 -17 156 -120l16 -572q17 -36 52 -36q42 0 80 72q24 20 24 32l4 192l-12 376h8q35 -19 148 -56v-4l-12 -516q-306 -252 -336 -252h-8q-33 29 -132 188v276l-4 404z" />
    <glyph glyph-name="w" unicode="w" horiz-adv-x="944" 
d="M-5 1161h88l208 -8v-8q-48 -15 -48 -60v-24l-8 -540q4 -24 32 -40h24q96 129 96 144v304q0 37 80 88l52 44h4v-4l-8 -12v-8q20 -26 20 -40v-408q0 -56 28 -132h4q77 71 124 148v8l12 312v104q0 81 -48 100v8h4l180 -4l100 4v-8q-60 -11 -60 -80l-8 -404l-264 -328
q-20 0 -32 -8q0 10 -32 40l-108 156l-40 -56q-54 -107 -164 -148q-17 0 -132 148q-48 46 -48 72l-4 48l16 536q0 28 -68 48v8z" />
    <glyph glyph-name="x" unicode="x" horiz-adv-x="904" 
d="M25 1196l284 -68q27 0 104 -168q11 -10 36 -64h8q143 268 160 268l288 12v-8q-160 -46 -216 -148l-156 -264q135 -227 244 -384q110 -72 172 -72v-8l-280 8l-64 -4h-68v8q64 29 64 48l-144 256h-8l-172 -304q32 -38 68 -48v-8l-144 4l-272 -4v8q139 30 188 88
q252 403 252 416q-158 287 -200 336q-32 9 -108 80l-36 12v8z" />
    <glyph glyph-name="y" unicode="y" horiz-adv-x="700" 
d="M428 955h208l24 -8q-284 -528 -460 -816q-53 -77 -80 -104q-313 25 -404 64q-133 45 -160 84v4q0 26 84 112l44 4h168v-12q-20 -21 -148 -48l-36 -48q92 -32 260 -32h128q107 188 116 220l4 44q-3 104 -128 432l-40 24v8h276v-8q-36 -12 -36 -44q34 -252 60 -252
q27 29 168 324q0 31 -48 44v8z" />
    <glyph glyph-name="z" unicode="z" horiz-adv-x="700" 
d="M639 1117l4 -4q-173 -425 -320 -592l-88 -100q295 36 344 80l72 68h4q-88 -260 -96 -264l-64 -4l-500 -4v4q245 325 324 472q80 125 80 180l-276 -56q-38 -10 -112 -88v8l92 260z" />
    <glyph glyph-name="afii10017" unicode="&#x410;" horiz-adv-x="1201" 
d="M453 1383h304v-8q-22 0 -32 -64v-28q0 -36 232 -744l12 -44l104 56h8v-4q-31 -65 -88 -124q97 -301 124 -360q38 -44 76 -56v-8h-404v4q29 27 68 44q16 21 16 36v12q0 43 -72 248q-87 0 -344 228q-184 -561 -184 -596v-8q0 -33 52 -52v-8l-152 -4l-160 4v8q56 0 92 160
l184 568q-71 0 -160 -80l40 -80q-77 77 -80 88v8q121 144 220 144q172 501 172 560v20q0 51 -28 76v4zM593 1031l-112 -380q196 -170 284 -180l-168 560h-4z" />
    <glyph glyph-name="afii10018" unicode="&#x411;" horiz-adv-x="807" 
d="M851 1833h14q38 0 110 -24v-9q-64 -70 -64 -117v-29l-10 -9q-53 56 -82 56h-5q-58 0 -184 -98q-233 -173 -331 -202l-5 -5v-409l235 94l276 -371l-60 -569l-262 -141l-184 192v-61q0 -85 101 -127v-9h-55l-423 5v9q110 40 110 136l-9 1251q-262 53 -262 258v19
q56 52 125 52h27v-10q-76 -25 -87 -47v-42q0 -95 179 -136l138 -14q156 0 368 164q268 193 340 193zM294 895l5 -391v-270l187 -88v5l50 59l-30 749l-5 14z" />
    <glyph glyph-name="afii10019" unicode="&#x412;" horiz-adv-x="904" 
d="M552 1524l236 -316q-44 -431 -52 -444l-108 -56v-4l160 -176q-44 -394 -52 -404q-229 -120 -240 -120h-12l-484 -4v8q96 29 96 120l-8 1060q0 55 -72 108v4l304 128q0 19 144 64q70 32 88 32zM316 1344l12 -488l168 -76l40 56l-24 576h-4zM320 760l8 -668h4
q172 44 172 60l32 44l-24 468z" />
    <glyph glyph-name="afii10020" unicode="&#x413;" horiz-adv-x="794" 
d="M1301 1736h244l20 -15q0 -24 -220 -40q-217 -51 -388 -167q-222 -143 -265 -143q-116 -38 -116 -91v-1058q0 -136 128 -207l4 -4v-4l-8 -7q-472 26 -508 33v7q60 52 124 88l8 1185q-86 27 -168 102q-100 76 -132 142q-13 51 -24 51v8l220 40l8 -11v-7q0 -11 -124 -44
l-28 -18q35 -71 140 -110q8 -13 92 -40q106 0 372 69q79 43 169 106q198 102 244 102z" />
    <glyph glyph-name="afii10021" unicode="&#x414;" horiz-adv-x="1095" 
d="M618 1496q32 0 83 -53q172 -783 230 -986q30 -82 98 -182q27 -44 61 -44l85 -3l156 7l3 -4v-3q-78 -186 -91 -202l-22 -32h2l66 19h2v-3l-121 -205h3l53 23l-169 -242h-3v4l30 136h-2l-50 -40v6l63 169v7q-48 -47 -89 -73v3l78 245h-856q59 -177 78 -248h-3
q-44 32 -86 73v-7q63 -163 63 -175l-50 40h-2l30 -140h-3l-169 242h3l50 -23h3l-121 205v3h2l68 -19q-41 53 -80 158l-33 79l3 4h3l198 -7q103 124 141 245q53 188 225 973q27 26 70 50zM625 1203q0 -47 -111 -535l-88 -417h2l73 3h330l-204 949h-2z" />
    <glyph glyph-name="afii10022" unicode="&#x415;" horiz-adv-x="993" 
d="M824 1524q8 -11 80 -328h-4q-91 116 -196 116h-24l-320 -4v-448h272q51 0 92 104h8l-4 -380h-8q-24 112 -152 112h-196v-480l288 -4h48q103 0 192 116h4q-72 -318 -80 -328h-4q-276 28 -516 28h-148l-92 -16q-8 4 -64 304h4q79 -73 136 -88v4l-12 1060q-55 -18 -124 -88
h-4q56 308 64 308h8l84 -16h168q219 0 500 28z" />
    <glyph glyph-name="afii10024" unicode="&#x416;" horiz-adv-x="1729" 
d="M656 1501h359v-9q-42 -34 -42 -133v-321q15 0 46 56q202 213 288 381l13 9l384 13v-9q-131 -42 -196 -141l-410 -515v-4q75 -140 439 -579q138 -208 192 -266q63 -42 84 -42v-9l-234 4l-217 -4v9q62 29 62 72q0 35 -213 300l-221 296h-4v-47h-9l4 -416v-22q0 -76 88 -107
v-8h-50l-384 4v9q108 31 108 132v404h-4q-13 -27 -418 -549l-16 -51q0 -37 62 -69v-9l-225 5l-226 -5v9q88 4 242 265q422 519 422 545l51 77v5q-344 443 -468 583q-30 31 -138 73v8l388 -13q110 -195 314 -411q0 -13 8 -13v339q0 118 -79 145v9z" />
    <glyph glyph-name="afii10025" unicode="&#x417;" horiz-adv-x="740" 
d="M488 1306l208 -271q-39 -369 -46 -380l-95 -48v-4l141 -151q-39 -337 -46 -346q-202 -103 -212 -103h-11l-427 -3v7q34 0 81 62q279 11 279 30q89 16 89 38l24 31l-21 401l-109 7l-4 3v83l7 6h14q29 0 89 14l24 34l-21 494h-3q-350 -123 -396 -134l-39 35v3l269 110
q0 16 127 55q62 27 78 27z" />
    <glyph glyph-name="afii10026" unicode="&#x418;" horiz-adv-x="1065" 
d="M1058 1563l-56 -68q-9 0 -64 -535v-5l96 47h4l4 -4l-80 -549l68 47h8l-148 -886h-8l-44 502h-4q0 -12 -60 -101h-4l12 565v4h-4l-76 -131h-8v72l4 561v8h-4q-308 -891 -356 -1012q0 -32 52 -67v-9h-392v9q48 4 48 173v1126q0 160 -64 160v8h344v-4q-60 -36 -60 -88v-1059
h4q408 1081 444 1156v4q0 44 -20 72v4l68 4h296v-4z" />
    <glyph glyph-name="afii10027" unicode="&#x419;" horiz-adv-x="1095" 
d="M1058 1563l-56 -68q-9 0 -64 -535v-5l96 47h4l4 -4l-80 -549l68 47h8l-148 -886h-8l-44 502h-4q0 -12 -60 -101h-4l12 565v4h-4l-76 -131h-8v72l4 561v8h-4q-308 -891 -356 -1012q0 -32 52 -67v-9h-392v9q48 4 48 173v1126q0 160 -64 160v8h344v-4q-60 -36 -60 -88v-1059
h4q408 1081 444 1156v4q0 44 -20 72v4l68 4h296v-4zM544 1830h144l4 -4h4l-68 -236h-8l-20 68h-4q-68 -168 -76 -168h-4q-7 52 -16 52l-120 -172h-8l8 208h4q6 0 24 -40h4q17 164 28 164l44 -48q49 176 60 176z" />
    <glyph glyph-name="afii10028" unicode="&#x41a;" horiz-adv-x="1069" 
d="M20 1509h344v-9q-40 -35 -40 -133v-324q14 0 44 56q193 215 276 384l12 9l368 13v-9q-126 -42 -188 -142l-392 -518v-5q71 -140 420 -583q132 -209 184 -267q60 -43 80 -43v-9l-224 5l-208 -5v9q60 30 60 73q0 36 -204 302l-212 298h-4v-47h-8l4 -419v-22q0 -76 84 -108
v-8h-48l-368 4v9q104 34 104 129l-8 1222q0 96 -76 129v9z" />
    <glyph glyph-name="afii10029" unicode="&#x41b;" horiz-adv-x="851" 
d="M452 1646h312l8 -8l-88 -744l100 44l4 -4v-4l-80 -516h4q63 44 72 44v-4l-148 -844h-8v4l-40 476h-8l-56 -96h-8l4 52l8 488v4h-4l-72 -120h-8v1016l-164 64l-4 -16l-16 -524v-92l-4 -740q-94 -58 -416 -196q-156 -99 -192 -112h-8q-22 13 -136 288v24q0 37 224 152v-4
q-48 -51 -48 -80q37 -177 52 -200q77 0 168 64q120 91 120 108v888q0 85 -20 232l240 320l204 -80v108z" />
    <glyph glyph-name="afii10030" unicode="&#x41c;" horiz-adv-x="1503" 
d="M994 1497h400v-4q-60 -70 -60 -184l-52 -400l108 44l-80 -524l68 44h4l-144 -852h-8l-44 488h-4l-56 -96h-8l12 540v4h-4q0 -10 -76 -124v-4h-8v512l4 84v4h-4l-344 -720h-4q-23 27 -320 600h-4v-500h-4q-80 108 -80 124h-4v-8l12 -532h-4q-25 29 -60 92h-4l-44 -480h-8
l-148 848h4l68 -44h4l-80 520l4 4l100 -44v4q-57 516 -64 516q-35 52 -48 52v8h4l396 24h12v-4q-24 -25 -24 -68v-16q0 -19 292 -760v-4h4q332 758 332 776v24q0 48 -36 48v8z" />
    <glyph glyph-name="afii10031" unicode="&#x41d;" horiz-adv-x="1188" 
d="M875 1491h24v-4q-76 -77 -76 -115q3 -490 8 -490q89 45 132 45q45 0 112 -20v-8q-68 -65 -68 -136h-4q-49 49 -76 49h-4q-58 0 -92 -33l12 -769q0 -71 80 -102v-9h-40l-380 5v8q84 44 84 98v613h-4q-99 -58 -204 -90v-420q0 -68 84 -107v-8h-52l-408 4v8q44 0 96 74
q8 19 8 54v419q-60 9 -136 66q-64 64 -64 148v17q56 45 116 45h32v-8q-88 -22 -88 -58v-8q0 -84 140 -128v8l-4 671q0 67 -76 107v8h384v-4q-44 -45 -44 -86l12 -708h4q54 17 204 103v650q0 69 -80 99v8z" />
    <glyph glyph-name="afii10032" unicode="&#x41e;" horiz-adv-x="997" 
d="M544 1501h36q27 -22 224 -264q76 -71 76 -729l4 -187l4 -23q-30 -104 -280 -245q-117 -51 -176 -53q-67 0 -100 42q-298 227 -328 332l-4 237v149q0 470 28 470q256 179 460 252zM272 1176v-901q0 -53 160 -157q130 39 184 96l4 4v492q0 384 -108 642h-4
q-236 -87 -236 -176z" />
    <glyph glyph-name="afii10033" unicode="&#x41f;" horiz-adv-x="794" 
d="M20 1683l315 -8l4 -4v-4l-4 -90l151 49l218 -305l-23 -969l-4 -4v-4q45 -102 179 -102l23 -4l8 -49l-4 -4h-4l-556 106v4l109 81l23 70v549q-13 489 -23 489l-20 4h-35q-24 -3 -46 -25l27 -1079h-8l-58 110h-4l-8 -528h-8l-58 113h-4l-43 -512q-7 0 -7 -12l-4 -5h-4
l-8 13v16l4 4l-8 20l4 4v5l-136 882h4l70 -73v4l-78 550h4l93 -69v4l-85 769z" />
    <glyph glyph-name="afii10034" unicode="&#x420;" horiz-adv-x="814" 
d="M332 1504l8 -8v-108l204 80l240 -316l-52 -484l-228 -120l-164 168l4 -280v-164h-4q-80 108 -80 124h-4v-8l8 -488l4 -48h-8l-56 96h-8v-4l-40 -476h-8l-148 848h4l68 -44h4l-80 520l4 4l100 -44v4l-88 744l4 4h316zM340 1292v-532q127 -76 152 -76l40 48l-24 612l-4 12z
" />
    <glyph glyph-name="afii10035" unicode="&#x421;" horiz-adv-x="918" 
d="M544 1488h36q23 -19 196 -240q52 -62 52 -100l-280 -216h-4q37 53 48 116q0 94 -80 284q-220 -92 -220 -140q-20 -23 -20 -52v-852q0 -55 160 -164q130 40 184 100l4 4v200l8 8l252 -56l4 -4v-20l4 -44q-30 -109 -280 -256q-117 -54 -176 -56q-69 0 -104 48
q-324 250 -324 376l-4 168v120q0 492 28 492q256 187 460 264z" />
    <glyph glyph-name="afii10036" unicode="&#x422;" horiz-adv-x="1130" 
d="M1029 1511l70 -340h-3q-92 107 -168 107l-254 -4v-3l4 -145v-802h-7l-66 115v3h-4v-3l11 -499h-7l-49 88h-4l-38 -451h-7v4l-125 784h3l60 -41v4l-70 480l94 -40l-59 506h-247q-102 0 -181 -96h-4q42 278 56 326q161 -19 348 -19h163q236 0 484 26z" />
    <glyph glyph-name="afii10037" unicode="&#x423;" horiz-adv-x="758" 
d="M457 1758q37 -8 274 -17l9 -8q-39 -57 -39 -139l-3 -135v-397l3 -236q-15 -78 -53 -126q-131 -191 -242 -413q-105 -168 -105 -211q0 -36 45 -68v-8l-161 4l-161 -4v8q60 1 176 266l152 261q-125 147 -224 274q-83 123 -86 190v72l3 383q-6 29 -45 72v4h3l239 9
q36 -4 36 -17q-36 -24 -36 -127v-522q0 -56 119 -173q140 71 140 122l-3 805q0 26 -44 127z" />
    <glyph glyph-name="afii10038" unicode="&#x424;" horiz-adv-x="980" 
d="M317 1492h290v-4q-37 -45 -37 -111v-34l171 85l202 -337l-44 -515l-191 -128l-132 170v-485q0 -78 74 -115v-9h-40l-309 4v9q34 0 74 76q6 20 6 56v473h-3l-138 -175q-188 127 -192 137l-40 502l202 341l165 -85v13q0 86 -58 123v9zM230 1273l-3 -15l-20 -564l37 -48
l121 66v201l-3 304zM593 1201l3 -45v-449q0 -9 124 -74v4l34 44l-20 568l-3 11z" />
    <glyph glyph-name="afii10039" unicode="&#x425;" horiz-adv-x="1188" 
d="M183 1522q12 -9 260 -484q8 -19 16 -21l24 73h4q31 -47 76 -150h4q45 103 76 150h4l24 -73q12 7 268 501l4 4h4l156 -120q-410 -661 -428 -681l60 -124h4l12 65h8l384 -801q-288 394 -288 402h-4v-4l20 -98h-4l-272 432l-12 -26l12 -68q-9 0 -28 43h-4q-19 -43 -28 -43v4
l12 64l-12 26l-272 -432h-4l20 98v4h-4q0 -8 -288 -402v9l384 792h8l12 -65h4l60 124q-18 20 -428 681z" />
    <glyph glyph-name="afii10040" unicode="&#x426;" horiz-adv-x="851" 
d="M407 1501v-7q80 -27 80 -91v-1171q0 -38 -64 -83h-64q-80 32 -80 94v381q0 297 -12 738q0 37 44 79v4h-384v-8h8q68 -48 68 -94l4 -674v-546q0 -32 -24 -60q-85 -72 -108 -72v-7l660 -4h20l-52 -177v-4h4l76 64l-56 -169v-4l48 38l-32 -140h8v4l152 230v4l-44 -19v4
l108 191v4q-20 0 -56 -18h-8l104 157q-32 11 -56 46q-15 0 -28 1209q2 31 76 101v4h-24z" />
    <glyph glyph-name="afii10041" unicode="&#x427;" horiz-adv-x="782" 
d="M15 1544q43 0 201 -151l8 -440q7 0 7 -13l4 -220q30 -34 57 -34h15q45 0 64 43q42 38 42 65l-4 586q0 57 -53 108l-11 4v9h326v-4q-34 -40 -42 -87l8 -1294q0 -53 64 -99l19 -8v-9h-45l-349 4v9q38 0 83 78q8 19 8 56v396l-4 138q-134 -151 -186 -168l-30 -21h-26
q-29 22 -167 233v319l-4 478q7 20 15 22z" />
    <glyph glyph-name="afii10042" unicode="&#x428;" horiz-adv-x="1272" 
d="M1168 1460h21v-4q-59 -64 -66 -98l3 -523v-101q7 -82 14 -629q0 -65 70 -94v-7l-391 -4h-498l-321 4v7q35 0 77 68l7 45l-7 1084q0 45 -53 94h-7v7h300v-3q-31 -35 -38 -76l7 -1027h209v331l-3 670q0 61 -67 98v7h335v-3q-38 -42 -38 -79q10 -441 10 -738v-286h185v1155
q0 64 -70 91v7z" />
    <glyph glyph-name="afii10043" unicode="&#x429;" horiz-adv-x="1334" 
d="M1133 1460h21v-4q-60 -61 -67 -93l3 -501v-97l15 -512l107 3h78v-3l-111 -195v-7l68 25l4 -3l-125 -256h3l50 29v-11l-160 -292h-7v4l32 169q-48 -46 -57 -46l68 223l-90 -90v4l65 255v3l-36 -3h-728l-328 3v8q37 0 78 65l8 43l-8 1038q0 42 -53 90h-7v7h307v-4
q-32 -33 -40 -72l8 -984h214v318l-4 641q0 59 -68 94v7h343v-4q-40 -40 -40 -75q11 -422 11 -707v-274h189v1107q0 60 -71 86v7z" />
    <glyph glyph-name="afii10044" unicode="&#x42a;" horiz-adv-x="696" 
d="M-201 1501l138 -20h130q61 0 215 20v-4q0 -96 -18 -96v-48q-21 -192 -21 -301v-228l180 80l211 -317l-46 -485l-201 -120l-141 164v-32q0 -73 78 -108v-7h-42l-324 3v8q36 0 77 72l7 48l-3 834l-4 132l4 140l7 8v45l-53 4q-148 0 -172 -24q-71 -63 -71 -81l-3 -4h-8v4
l25 161l28 136q0 16 7 16zM243 745l3 -284v-288l131 -76v4l35 51l-21 648l-4 13z" />
    <glyph glyph-name="afii10045" unicode="&#x42b;" horiz-adv-x="1108" 
d="M672 1430h344v-4q-36 -37 -44 -80l8 -1200q0 -49 68 -92l20 -8v-8h-48l-368 4v8q40 0 88 72l8 48l-8 1152q0 48 -60 100h-8v8zM-46 1487h344v-9q-68 -40 -68 -132v-409l204 91l240 -359l-52 -551l-228 -136l-160 186v-36q0 -83 88 -123v-9h-48l-368 5v9q41 0 88 82l8 54
l-4 1005l-4 32l4 41v136q0 71 -44 118v5zM230 824l4 -311v-315l148 -84v5l40 55l-24 710l-4 14z" />
    <glyph glyph-name="afii10046" unicode="&#x42c;" horiz-adv-x="913" 
d="M53 1496h377v-9q-75 -40 -75 -131v-407l224 91l263 -358l-57 -546l-250 -136l-175 185v-36q0 -82 96 -122v-9h-53l-403 5v9q44 0 96 81l9 54l-4 999l-5 32l5 40v136q0 70 -48 117v5zM391 834l5 -287v-290l166 -77v4l45 52l-27 653l-4 13z" />
    <glyph glyph-name="afii10047" unicode="&#x42d;" horiz-adv-x="958" 
d="M322 1492h37q198 -66 422 -205q129 -80 129 -100q17 -216 17 -473v-120q0 -245 -25 -245q-91 -136 -368 -341l-66 -8q-81 0 -268 108q-200 144 -200 205l4 44v16q0 15 180 44l92 20l4 -4v-200q30 -51 158 -97l42 -12q154 105 163 165v349h-42q-133 0 -158 -101l-5 -12h-8
v4l-4 377h8q43 -104 96 -104h113v341q0 104 -238 185l-12 8q-84 -192 -84 -281q8 -62 50 -120h-4l-292 216q0 51 188 261q48 64 71 80z" />
    <glyph glyph-name="afii10048" unicode="&#x42e;" horiz-adv-x="1565" 
d="M1121 1630h41q30 -24 254 -291q87 -79 87 -805l4 -206l5 -25q-34 -115 -318 -270q-133 -56 -200 -59q-79 0 -119 51q-368 273 -368 370l-9 241l-87 8h-95v-518q0 -77 100 -114v-9h-55l-418 5v8q47 0 100 76l9 51l-9 1213q0 50 -68 105h-9v9h391v-4q-46 -45 -50 -89
l4 -455v-105h191v4q0 510 32 510q291 197 523 278zM769 1263v-958q0 -56 231 -166q189 40 267 101l5 4v524q0 408 -156 682h-6q-341 -93 -341 -187z" />
    <glyph glyph-name="afii10049" unicode="&#x42f;" horiz-adv-x="822" 
d="M761 1496l4 -4l-88 -707v-4l100 42l4 -4l-80 -494h4l68 41h4l-148 -806h-8l-40 453v3h-8l-56 -90h-8l4 45l8 464v7h-4q0 -15 -80 -117h-4l12 327v7h-4q-68 -103 -68 -114q-200 -563 -200 -665v-30q0 -19 12 -38l-4 -4l-56 7l-76 -7q-299 -65 -376 -65h-32v8l48 19
q194 121 236 121q50 0 92 84q203 467 212 654q-34 21 -164 72l-48 460l256 301q33 -11 160 -76h4v102l8 8h316zM310 1370l-24 -624l60 -56q38 23 108 80v528z" />
    <glyph glyph-name="afii10065" unicode="&#x430;" horiz-adv-x="585" 
d="M237 1257q135 -85 236 -200l16 -32l-8 -512h44l28 -4v-4q-169 -204 -224 -204h-12q-12 0 -12 52v48l-132 -84h-8q-87 0 -160 372q19 69 224 160l40 12q-68 -67 -68 -176v-4q0 -142 64 -224q40 8 40 40v624q-164 -92 -164 -140l20 -68l-4 -4h-40q-100 113 -100 180
q0 47 168 136q0 7 52 32z" />
    <glyph glyph-name="afii10066" unicode="&#x431;" horiz-adv-x="762" 
d="M586 1855q33 -37 124 -216l8 -36v-20q0 -34 -172 -120l-48 -32l-4 4v4q38 33 52 76q-42 187 -56 200h-4q-248 -182 -248 -260v-116l-4 -156l4 -60l172 88l216 -316l-52 -488l-200 -116h-4l-108 144v-40q23 -74 52 -96l12 -12v-4h-8l-212 4l-124 -4v4l56 40q16 31 20 64
l4 632v268l-4 288l-48 -4h-8v8q168 111 236 172h4v-120h4q308 220 328 220h12zM242 1035l16 -548l96 -68l60 56l-24 624h-4q-130 -64 -144 -64z" />
    <glyph glyph-name="afii10067" unicode="&#x432;" horiz-adv-x="652" 
d="M221 1756h4v-152l124 64l188 -280q-20 -328 -32 -328l-68 -36l164 -244l-40 -368l-200 -116h-4l-108 144v-40q23 -74 52 -96l12 -12v-4h-8l-212 4l-124 -4v4l56 40q16 31 20 64l4 632v268l-4 288l-48 -4h-8v8q169 113 232 168zM225 1504v-508l128 64v68l-4 440h-4z
M229 908v-104l8 -44l8 -268l96 -68l60 56l-8 292l-8 8l-8 192h-4q-130 -64 -144 -64z" />
    <glyph glyph-name="afii10068" unicode="&#x433;" horiz-adv-x="771" 
d="M595 1860q33 -37 124 -216l8 -36v-20q0 -34 -172 -120l-48 -32l-4 4v4q38 33 52 76q-42 187 -56 200h-4q-248 -182 -248 -260v-116l-4 -156q8 -72 24 -768q0 -23 36 -96l32 -32v-4h-8l-212 4l-124 -4v4l56 40q16 31 20 64l4 632v268l-4 288l-48 -4h-8v8q168 111 236 172
h4v-120h4q308 220 328 220h12z" />
    <glyph glyph-name="afii10069" unicode="&#x434;" horiz-adv-x="647" 
d="M221 1248h4l176 -96v24l-4 68h8l184 -100l12 -12v-512l-12 -564q-385 -336 -432 -344h-16q-15 0 -128 224l-8 40q0 40 204 144q4 12 24 12v-4q-52 -56 -52 -80l52 -200q188 124 188 196v420l-4 48l-160 -188q-208 116 -208 132l-44 476zM237 1136v-4l-24 -624l64 -52
q144 127 144 140l-16 444z" />
    <glyph glyph-name="afii10070" unicode="&#x435;" horiz-adv-x="574" 
d="M280 1172h4q31 0 200 -120l56 -204l-48 -104h-4q-95 40 -168 40h-44q-25 0 -56 -12l12 -344q14 -38 76 -72q64 102 64 236l4 4h4l88 -112q-116 -172 -132 -184h-108q-213 179 -216 200l-12 116v24q6 356 48 356q212 176 232 176zM216 844h104l68 -4l-120 260h-12
q-20 0 -32 -216z" />
    <glyph glyph-name="afii10072" unicode="&#x436;" horiz-adv-x="1369" 
d="M780 1402v-4l-36 -52l4 -4v-4l-4 -204l-12 -60l-4 -252q355 399 380 436v8q-25 38 -128 72v8l360 -28l4 -4v-8q-23 -2 -120 -124l-192 -208l208 -584q57 -64 80 -64v-8h-244q-8 0 -8 12q20 44 20 64l-152 476h-4l-200 -208v-252q0 -148 228 -248v-8h-4q-80 0 -396 136
l-36 8h-8l-40 -4v8q84 35 84 104v224l-188 196h-4l-152 -484l20 -64l-4 -4h-248v8q32 0 84 76q32 75 204 572l-288 320l-24 12v4q0 8 12 8l352 28v-8q-103 -34 -128 -72v-8q321 -377 368 -420l4 368v176q0 16 -40 60l4 4h248z" />
    <glyph glyph-name="afii10073" unicode="&#x437;" horiz-adv-x="596" 
d="M232 1533h60q192 -102 192 -116q18 -169 24 -172q10 0 16 -80l-168 -244l160 -232q-19 -220 -28 -220q-6 0 -8 -36q-164 -99 -224 -120h-4q-18 0 -232 172v32h12l180 -76h4l76 44v72l-8 12l-8 284l-8 8v32l-52 -16l-4 4v88q0 9 72 32q0 155 16 372l-100 44
q-1 -6 -188 -76h-12v32q6 11 84 60l108 80q23 20 40 20z" />
    <glyph glyph-name="afii10074" unicode="&#x438;" horiz-adv-x="720" 
d="M435 1093l223 -12v-9l-26 -41l13 -681q26 -36 26 -50l-4 -4v-4q-284 8 -284 21v16q0 8 30 13l26 53v207l-275 -289h-56l-47 41l-4 421v87l-43 53v5q0 13 262 28v-8l-43 -58l-9 -305l5 -4h4q121 160 232 421l8 45q-42 28 -42 50z" />
    <glyph glyph-name="afii10075" unicode="&#x439;" horiz-adv-x="736" 
d="M435 1093l223 -12v-9l-26 -41l13 -681q26 -36 26 -50l-4 -4v-4q-284 8 -284 21v16q0 8 30 13l26 53v207l-275 -289h-56l-47 41l-4 421v87l-43 53v5q0 13 262 28v-8l-43 -58l-9 -305l5 -4h4q121 160 232 421l8 45q-42 28 -42 50zM398 1431h144l4 -4h4l-68 -236h-8l-20 68
h-4q-68 -168 -76 -168h-4q-7 52 -16 52l-120 -172h-8l8 208h4q6 0 24 -40h4q17 164 28 164l44 -48q49 176 60 176z" />
    <glyph glyph-name="afii10076" unicode="&#x43a;" horiz-adv-x="873" 
d="M313 1388v-4l-36 -56l-16 -500q355 399 380 436v8q-25 38 -128 72v8l360 -28l4 -4v-8q-23 -2 -120 -124l-192 -208l208 -584q57 -64 80 -64v-8h-244q-8 0 -8 12q20 44 20 64l-152 476h-4l-200 -208v-252q0 -148 228 -248v-8h-4q-80 0 -396 136l-36 8h-8l-40 -4v8
q84 37 84 96l8 652l-4 80l4 184v4q0 16 -40 60l4 4h248z" />
    <glyph glyph-name="afii10077" unicode="&#x43b;" horiz-adv-x="758" 
d="M419 1496h248l8 -8l-88 -740h4q86 40 100 40v-4l-152 -824h-8q-32 376 -32 496v4h-4q0 -15 -84 -132h-4l4 708v252l-144 64v-4l-20 -448v-384q-12 -12 -12 -76v-124q-442 -326 -492 -352h-4q-74 69 -144 224l-8 48q0 37 184 132q24 20 40 20v-4q-48 -50 -48 -80l48 -196
h12q85 52 224 204q20 20 20 64q0 480 -36 772l220 316l160 -84v108z" />
    <glyph glyph-name="afii10078" unicode="&#x43c;" horiz-adv-x="1055" 
d="M284 1434v-4l-4 -4l224 -652h8q128 389 224 648l-4 4v8h260l8 -8l-88 -740h4q86 40 100 40v-4l-152 -824h-8q-32 376 -32 496v4h-4q0 -15 -84 -132h-4l4 708v40h-8l-140 -444l20 -64l-4 -4h-188q-8 0 -8 12q20 44 20 64l-140 436h-8v-40l4 -708h-4q-84 117 -84 132h-4v-8
q-12 -290 -32 -492h-8l-152 828h4l100 -40v4l-88 740l4 4h264z" />
    <glyph glyph-name="afii10079" unicode="&#x43d;" horiz-adv-x="661" 
d="M203 1170h4v-332l8 -12v-128h24l72 -4q48 5 48 16v96l-12 352l4 4h180l8 -8l4 -216l-4 -172q103 40 188 40q12 0 28 -20h4v-12h-12q-78 0 -212 -72q0 -91 -20 -308q0 -40 44 -80v-4h-272v8q64 29 64 240l4 76h-4l-32 -8h-104q6 -288 28 -288q19 -20 28 -20v-8h-4l-160 4
l-96 -4v8q56 19 56 52v260q-66 5 -148 52q-80 61 -88 124v8q0 17 28 80h4l64 -8h140v108h-52l-48 -4v8q72 45 236 172zM-81 842q11 -55 64 -100q27 -20 84 -36v172q-67 -36 -148 -36z" />
    <glyph glyph-name="afii10080" unicode="&#x43e;" 
d="M332 1164q156 -108 156 -120q68 -56 68 -376l4 -192l4 -16q0 -75 -264 -168l-40 -4q-42 0 -144 100q-116 90 -116 128l20 488q250 160 312 160zM200 980l8 -556q27 -56 64 -64q84 29 84 68v140q0 357 -36 508q-91 -35 -120 -96z" />
    <glyph glyph-name="afii10081" unicode="&#x43f;" horiz-adv-x="723" 
d="M259 1420l8 -8v-108h4l160 84l216 -316q-44 -335 -44 -700q0 -10 40 -56l-4 -4h-248v4l36 52l8 308l-24 600h-4l-140 -64v-760l4 -200h-4q-84 117 -84 132h-4v-8q-12 -290 -32 -492h-8l-152 828h4l100 -40v4l-88 740l4 4h252z" />
    <glyph glyph-name="afii10082" unicode="&#x440;" horiz-adv-x="612" 
d="M243 1361q12 -20 12 -40v-24q0 -28 -8 -44l28 -12q129 84 152 84h8l136 -324v-4q-261 -284 -276 -284h-4l-8 20q104 137 104 160v24q-84 240 -100 240q-24 -2 -24 -12q22 -792 36 -792q49 -28 52 -36v-4l-268 -12v4l-20 -8l-20 4h-28v4q72 75 72 88l-16 748l-4 12h-104
l-8 8v8q241 188 256 188z" />
    <glyph glyph-name="afii10083" unicode="&#x441;" 
d="M332 1169q31 0 196 -120l28 -76l-188 -124v8q28 55 28 108q0 15 -136 136q-18 0 -40 -252l-4 -4l20 -420q14 -38 76 -72q120 109 120 172l8 76h4q16 -12 88 -108v-4l-192 -192h-108q-213 179 -216 200l-12 116v28q0 214 32 344l240 184h56z" />
    <glyph glyph-name="afii10084" unicode="&#x442;" horiz-adv-x="501" 
d="M114 1320l40 -4l320 -8l4 -4v-4l-4 -92l-4 -4h-88l-16 -972q12 -20 16 -60l-4 -4q-139 83 -204 144v4l12 896h-168v4z" />
    <glyph glyph-name="afii10085" unicode="&#x443;" horiz-adv-x="700" 
d="M428 955h208l24 -8q-284 -528 -460 -816q-53 -77 -80 -104q-313 25 -404 64q-133 45 -160 84v4q0 26 84 112l44 4h168v-12q-20 -21 -148 -48l-36 -48q92 -32 260 -32h128q107 188 116 220l4 44q-3 104 -128 432l-40 24v8h276v-8q-36 -12 -36 -44q34 -252 60 -252
q27 29 168 324q0 31 -48 44v8z" />
    <glyph glyph-name="afii10086" unicode="&#x444;" horiz-adv-x="984" 
d="M565 1398h8v-276h4l152 80l216 -316l-52 -488l-200 -116h-4l-120 160v-4l-4 -380l-4 -48q0 -28 88 -112v-4q-268 80 -268 152v416l-116 -156h-4l-204 124l-48 480l220 316l156 -84v8q0 96 16 96q105 42 164 152zM245 1114v-4q-20 -389 -20 -624l60 -52q9 13 96 72l4 288
v252q-14 14 -140 68zM573 1030v-44l-4 -500l104 -76l60 56l-24 624h-4z" />
    <glyph glyph-name="afii10087" unicode="&#x445;" horiz-adv-x="904" 
d="M25 1196l284 -68q27 0 104 -168q11 -10 36 -64h8q143 268 160 268l288 12v-8q-160 -46 -216 -148l-156 -264q135 -227 244 -384q110 -72 172 -72v-8l-280 8l-64 -4h-68v8q64 29 64 48l-144 256h-8l-172 -304q32 -38 68 -48v-8l-144 4l-272 -4v8q139 30 188 88
q252 403 252 416q-158 287 -200 336q-32 9 -108 80l-36 12v8z" />
    <glyph glyph-name="afii10088" unicode="&#x446;" horiz-adv-x="720" 
d="M253 1153l8 -8l4 -196q0 -200 -20 -488h200q12 154 12 288v48l-12 352l4 4h180l8 -8l4 -196q0 -259 -28 -564q0 -55 64 -88l-68 -236h-8l-20 68h-4q-68 -168 -76 -168h-4q-7 52 -16 52l-120 -172h-8l8 208h4q6 0 24 -40h4q17 164 28 164l44 -48l52 176h-508v8
q56 33 56 144q16 98 16 296v48l-12 352l4 4h180z" />
    <glyph glyph-name="afii10089" unicode="&#x447;" horiz-adv-x="663" 
d="M318 1347q-144 -123 -144 -256l-8 -68l4 -128v-44q0 -71 44 -152h4q29 0 172 160l-4 168v44q0 54 -28 84v4l260 -4l4 -4v-4q-23 0 -44 -84v-68l-8 -364v-236q0 -27 36 -88h-4l-252 -20v8q44 62 44 88l-8 76v252l-4 60h-4q-40 -77 -120 -156l-68 -28l-204 144l-4 432
q160 150 284 176z" />
    <glyph glyph-name="afii10090" unicode="&#x448;" horiz-adv-x="997" 
d="M907 1272l4 -4v-4q-48 -40 -48 -84l-12 -640q15 -39 44 -52h8l52 8v-8q-102 -38 -224 -164v-4h-8v184h-4q-105 -188 -144 -188q-41 -36 -64 -36h-4q-30 25 -132 188l-4 28q-19 -15 -88 -124l-100 -68h-20q-128 168 -128 188v572q12 19 212 132l4 -4v-4q-48 -40 -48 -84
l12 -616q23 -28 64 -28q24 0 52 60l40 56v400l-4 116q0 54 64 72l156 92l4 -4v-4q-52 -44 -52 -80q0 -241 16 -700q20 -24 36 -24l4 -4l12 -4q44 3 44 32q64 100 64 116v188l-8 352v28z" />
    <glyph glyph-name="afii10091" unicode="&#x449;" horiz-adv-x="966" 
d="M863 1271l4 -4v-4q-48 -40 -48 -84l-12 -640q15 -39 44 -52h8l52 8v-8q-39 0 -56 -108q-8 -10 -60 -204h-8l-20 68h-4q-68 -168 -76 -168h-4q-7 52 -16 52l-120 -172h-8l8 208h4q6 0 24 -40h4q17 164 28 164l44 -48l28 104v160h-4q-105 -188 -144 -188q-41 -36 -64 -36
h-4q-30 25 -132 188l-4 28q-19 -15 -88 -124l-100 -68h-20q-128 168 -128 188v572q12 19 212 132l4 -4v-4q-48 -40 -48 -84l12 -616q23 -28 64 -28q24 0 52 60l40 56v400l-4 116q0 54 64 72l156 92l4 -4v-4q-52 -44 -52 -80q0 -241 16 -700q16 -8 16 -20l36 -12q44 3 44 32
q64 100 64 116v188l-8 352v28z" />
    <glyph glyph-name="afii10092" unicode="&#x44a;" horiz-adv-x="652" 
d="M-303 1811h20q66 -33 316 -204l32 -16v120h4q36 -36 252 -172v-8l-60 4l-4 -396l4 -196l132 68l216 -316q-8 -76 -16 -92l-20 -184q0 -32 -72 -60l-136 -84h-4q-22 22 -120 168h-4l-4 -40v-4q0 -56 44 -92v-4h-272v8q56 33 56 144q16 98 16 296v48l-12 396v228
q0 57 -212 216q-38 32 -56 32q-6 0 -32 -112l-24 -84q6 -34 48 -76v-8q-193 100 -228 132l-8 24q4 60 108 208q0 22 36 56zM257 847v-12q0 -183 -16 -356l104 -76q49 52 60 52v20l-8 16l-4 120l-4 4h-4l-12 284h-4z" />
    <glyph glyph-name="afii10093" unicode="&#x44b;" horiz-adv-x="984" 
d="M895 1518l12 -12l4 -436q0 -385 -28 -660q0 -40 44 -80v-4h-272v8q56 33 56 144q16 98 16 296v28l-12 712l4 4h176zM59 1438h172q12 0 12 -84v-192l4 -228l132 68l216 -316q-8 -76 -16 -92l-20 -184q0 -32 -72 -60l-136 -84h-4q-22 22 -120 168h-4l-4 -40v-4
q0 -56 44 -92v-4h-272v8q56 33 56 144q16 98 16 296v48l-12 396v244zM243 838v-12q0 -183 -16 -356l104 -76q49 52 60 52v20l-8 16l-4 120l-4 4h-4l-12 284h-4z" />
    <glyph glyph-name="afii10094" unicode="&#x44c;" horiz-adv-x="656" 
d="M63 1447h172q12 0 12 -84v-192l4 -228l132 68l216 -316q-8 -76 -16 -92l-20 -184q0 -32 -72 -60l-136 -84h-4q-22 22 -120 168h-4l-4 -40v-4q0 -56 44 -92v-4h-272v8q56 33 56 144q16 98 16 296v48l-12 396v244zM247 847v-12q0 -183 -16 -356l104 -76q49 52 60 52v20
l-8 16l-4 120l-4 4h-4l-12 284h-4z" />
    <glyph glyph-name="afii10095" unicode="&#x44d;" horiz-adv-x="607" 
d="M276 1170q19 0 212 -160q48 -17 48 -88q20 -100 20 -280v-28q0 -138 -48 -160l-180 -156h-108l-192 192v4q72 96 88 108h4q0 -145 84 -200l48 -48q72 50 72 76l12 252h-108l-8 8q14 84 24 84h96v16l4 52q-28 233 -36 252l-12 8q-126 -120 -132 -136q0 -42 28 -116
q-179 115 -188 128q24 83 56 96q150 96 160 96h56z" />
    <glyph glyph-name="afii10096" unicode="&#x44e;" horiz-adv-x="931" 
d="M665 1174q156 -108 156 -120q68 -56 68 -376l4 -192l4 -16q0 -75 -264 -168l-40 -4q-40 0 -116 76q-144 105 -144 164l4 132h-112q-8 0 -8 -12q0 -91 -20 -308q0 -40 44 -80v-4h-272v8q56 33 56 144q16 98 16 296v48l-12 352l4 4h180l8 -8l4 -244l-4 -104h120l12 252
q250 160 312 160zM533 990l8 -556q27 -56 64 -64q84 29 84 68v140q0 357 -36 508q-91 -35 -120 -96z" />
    <glyph glyph-name="afii10097" unicode="&#x44f;" horiz-adv-x="940" 
d="M611 1544h248l8 -8l-88 -740h4q86 40 100 40v-4l-152 -824h-8q-32 376 -32 496v4h-4q0 -15 -84 -132h-4v136l4 244v4h-4q-146 -198 -264 -428v-4q50 -40 64 -40v-8h-68l-60 4l-284 -8v8q139 30 188 88l180 288l-84 56l-48 480l220 316l160 -84v108zM459 1400v-4
q-20 -389 -20 -624l60 -52l104 84v532z" />
  </font>
</defs>
</svg>
